<svg width="154" height="53" viewBox="0 0 154 53" fill="none" xmlns="http://www.w3.org/2000/svg">
<g id="made-with-love">
<path id="Union" fill-rule="evenodd" clip-rule="evenodd" d="M29.457 15.892C29.6921 15.9129 29.8411 15.8955 29.9038 15.8398C29.9822 15.7283 30.0841 15.6935 30.2095 15.7353C30.2722 15.7492 30.4015 15.6447 30.5975 15.4217C30.7935 15.1988 30.9228 14.8155 30.9855 14.272C30.9855 13.8261 31.009 13.3941 31.0561 12.976C31.1031 12.558 31.1972 12.2375 31.3383 12.0145C31.3383 11.6522 31.3735 11.3317 31.4441 11.0529C31.5146 10.7742 31.6048 10.398 31.7145 9.92417C31.8243 9.60366 31.9418 9.24133 32.0673 8.83721C32.1927 8.43308 32.3103 8.03592 32.42 7.64572C32.5297 7.25553 32.6081 6.94198 32.6552 6.70508C32.8747 6.11979 33.0706 5.52056 33.2431 4.9074C33.4155 4.29424 33.5527 3.7403 33.6546 3.24559C33.7565 2.75088 33.7996 2.40598 33.7839 2.21088C33.7526 1.80675 33.588 1.46534 33.2901 1.18663C32.9922 0.907916 32.6669 0.733722 32.3142 0.664045C31.9614 0.594368 31.6675 0.671013 31.4323 0.89398C31.1658 1.15875 30.8679 1.53501 30.5387 2.02275C30.2095 2.5105 29.8646 2.99824 29.504 3.48598C28.7358 4.69837 28.0852 5.71217 27.5522 6.5274C27.0191 7.34263 26.5606 8.02546 26.1765 8.57592C25.7924 9.12637 25.4632 9.58624 25.1888 9.95553C24.9144 10.3248 24.6518 10.6628 24.401 10.9693C24.2756 11.1366 24.1737 11.2759 24.0953 11.3874C24.0169 11.4989 23.9307 11.6104 23.8366 11.7219C23.7896 11.7776 23.723 11.8299 23.6367 11.8786C23.5505 11.9274 23.4839 11.9448 23.4368 11.9309C23.3585 11.8612 23.331 11.7149 23.3545 11.4919C23.3781 11.2689 23.429 10.9798 23.5074 10.6244C23.5858 10.2691 23.6877 9.8545 23.8131 9.38069C23.9385 8.90688 24.0757 8.38779 24.2246 7.8234C24.3736 7.25901 24.5107 6.66327 24.6362 6.03617C24.6989 5.82714 24.7616 5.56933 24.8243 5.26275C24.887 4.95617 24.9497 4.64611 25.0124 4.33256C25.0751 4.01901 25.1143 3.75075 25.13 3.52779C25.2241 3.04005 25.1966 2.64637 25.0477 2.34675C24.8988 2.04714 24.7381 1.80675 24.5656 1.62559C24.3775 1.4723 24.1854 1.35385 23.9895 1.27024C23.7935 1.18663 23.6328 1.14482 23.5074 1.14482C23.3349 1.14482 23.1351 1.27372 22.9077 1.53153C22.6804 1.78934 22.457 2.11334 22.2375 2.50353C22.1748 2.60108 22.1003 2.75088 22.0141 2.95295C21.9279 3.15501 21.8299 3.29088 21.7202 3.36056C21.5477 3.54172 21.2577 3.96327 20.8501 4.62521C20.4425 5.28714 19.8937 6.16856 19.2039 7.26946C19.0158 7.58998 18.7963 7.94185 18.5455 8.32508C18.2947 8.7083 18.0595 9.06366 17.84 9.39114C17.6205 9.71863 17.4481 9.97295 17.3227 10.1541C17.1502 10.4607 16.9817 10.7464 16.8171 11.0111C16.6524 11.2759 16.5309 11.4501 16.4526 11.5337C16.4369 11.6313 16.4055 11.7358 16.3585 11.8473C16.3115 11.9588 16.2487 12.0633 16.1704 12.1608C16.1233 12.2166 16.0057 12.3699 15.8176 12.6207C15.6295 12.8715 15.4335 13.1781 15.2297 13.5404C15.1043 13.7634 15.0142 13.9689 14.9593 14.1571C14.9044 14.3452 14.8848 14.5159 14.9005 14.6692C14.9162 14.8225 14.9397 14.9688 14.971 15.1082C15.0808 15.359 15.2219 15.575 15.3943 15.7562C15.5668 15.9373 15.7706 16.0349 16.0057 16.0488C16.0371 16.0209 16.0881 15.9617 16.1586 15.8711C16.2292 15.7806 16.3389 15.6273 16.4878 15.4113C16.6368 15.1953 16.8523 14.8748 17.1345 14.4497C17.4167 14.0247 17.7773 13.4568 18.2163 12.7461C18.6552 12.0354 19.1961 11.1505 19.8389 10.0914C20.1838 9.43643 20.5404 8.78146 20.9089 8.1265C21.2773 7.47153 21.6104 6.90017 21.9083 6.41243C22.2062 5.92469 22.41 5.60417 22.5197 5.45088C22.6451 5.26972 22.7235 5.18959 22.7549 5.2105C22.7862 5.2314 22.7784 5.41604 22.7314 5.76443C22.6843 5.90379 22.602 6.15114 22.4844 6.5065C22.3669 6.86185 22.2375 7.27992 22.0964 7.76069C21.9553 8.24146 21.8182 8.73966 21.6849 9.25527C21.5516 9.77088 21.4301 10.2586 21.3204 10.7185C21.1636 11.4431 21.0852 12.0075 21.0852 12.4117C21.0852 12.8158 21.1479 13.1328 21.2734 13.3628C21.3988 13.5927 21.5634 13.8191 21.7672 14.0421C22.2218 14.3766 22.6255 14.495 22.9783 14.3975C23.331 14.2999 23.7817 14.056 24.3305 13.6659C24.5813 13.4847 24.8282 13.2861 25.0712 13.0701C25.3142 12.8541 25.5219 12.6555 25.6944 12.4744C25.8668 12.2932 25.9687 12.1608 26.0001 12.0772L26.1647 11.8786C26.2745 11.7462 26.4038 11.5964 26.5527 11.4292C26.7017 11.262 26.8232 11.1157 26.9172 10.9902C27.1054 10.7812 27.27 10.5652 27.4111 10.3422C27.5522 10.1193 27.6541 9.93114 27.7168 9.77785C27.7481 9.70817 27.8069 9.61759 27.8932 9.50611C27.9794 9.39463 28.0774 9.26224 28.1871 9.10895C28.4066 8.78843 28.6731 8.35643 28.9867 7.81295C29.3002 7.26946 29.5824 6.78869 29.8332 6.37063C30.0997 6.0083 30.2879 5.71566 30.3976 5.49269C30.5074 5.26972 30.6249 5.07463 30.7504 4.9074C30.9228 4.6705 31.0365 4.50327 31.0913 4.40572L31.1737 4.2594L31.2207 4.17579C31.2364 4.14792 31.256 4.12004 31.2795 4.09217C31.303 4.0643 31.3226 4.03643 31.3383 4.00856L31.2795 4.26985C31.2403 4.44405 31.1776 4.69837 31.0913 5.03282C31.0051 5.36727 30.8915 5.77837 30.7504 6.26611C30.4682 7.29734 30.1899 8.30417 29.9155 9.28663C29.6412 10.2691 29.3943 11.1575 29.1748 11.9518C28.9553 12.7461 28.7985 13.3871 28.7045 13.8749C28.6888 14.3208 28.6888 14.6692 28.7045 14.92C28.7201 15.1709 28.7828 15.3939 28.8926 15.5889C29.0337 15.7701 29.2218 15.8711 29.457 15.892ZM33.6782 14.0632C33.8898 14.1747 34.027 14.2861 34.0897 14.3976C34.6149 14.7042 35.2753 14.7077 36.0709 14.4081C36.8666 14.1085 37.8209 13.457 38.934 12.4536C39.0281 12.37 39.1261 12.2759 39.228 12.1714C39.3299 12.0669 39.4122 11.9798 39.4749 11.9101C39.4906 11.9798 39.5494 12.1296 39.6513 12.3596C39.7532 12.5895 39.8355 12.7463 39.8982 12.8299C40.2744 13.4709 40.6977 13.8681 41.1681 14.0214C41.6384 14.1747 42.1322 14.2234 42.6496 14.1677C42.8063 14.1398 42.9514 14.0527 43.0846 13.9064C43.2179 13.7601 43.2845 13.5197 43.2845 13.1852C43.2845 13.0319 43.2296 12.9205 43.1199 12.8508C43.0102 12.7811 42.8926 12.7393 42.7672 12.7254C42.5477 12.6975 42.3713 12.6418 42.238 12.5581C42.1048 12.4745 41.999 12.3561 41.9206 12.2028C41.7246 11.8962 41.5776 11.5339 41.4796 11.1158C41.3817 10.6978 41.4313 10.21 41.6285 9.6526L42.0381 8.60743L41.1681 7.91763C41.0113 7.79221 40.8271 7.65285 40.6154 7.49956C40.4038 7.34627 40.2157 7.20692 40.051 7.0815C39.8864 6.95608 39.7806 6.87247 39.7336 6.83066C39.4827 6.6495 39.1809 6.55195 38.8282 6.53801C38.4755 6.52408 38.1345 6.61466 37.8053 6.80976C37.6446 6.89076 37.4437 7.02249 37.2026 7.20496C36.9616 7.38743 36.722 7.57969 36.4838 7.78176C36.2455 7.98382 36.0456 8.16847 35.8841 8.33569C35.7225 8.50292 35.6261 8.6144 35.5947 8.67014L35.4066 9.00459C35.3439 9.00459 35.289 9.02898 35.242 9.07776C35.195 9.12653 35.1714 9.17879 35.1714 9.23453C35.1087 9.29027 35.0147 9.40872 34.8892 9.58989C34.7638 9.77105 34.6384 9.91737 34.513 10.0289C34.2151 10.5166 33.9408 10.9974 33.6899 11.4712C33.4391 11.945 33.251 12.3456 33.1255 12.6731C33.0001 13.0006 32.9766 13.2061 33.055 13.2898C33.1177 13.3455 33.1843 13.4326 33.2549 13.551C33.3254 13.6695 33.3607 13.7566 33.3607 13.8123C33.3607 13.8681 33.4665 13.9517 33.6782 14.0632ZM36.8411 11.9101C36.4492 12.1889 36.1356 12.3874 35.9004 12.5059C35.6653 12.6243 35.4928 12.6766 35.3831 12.6627L35.5477 12.2341C35.6574 11.9485 35.8142 11.6523 36.018 11.3458C36.457 10.6908 36.8528 10.1438 37.2056 9.70485C37.5583 9.26589 37.8758 8.93143 38.158 8.7015C38.4402 8.47156 38.6832 8.3566 38.887 8.3566C39.0124 8.3566 39.1378 8.40537 39.2632 8.50292C39.3887 8.60047 39.5298 8.8095 39.6865 9.13001L39.1692 9.88253C38.84 10.3006 38.5029 10.642 38.158 10.9068C37.8131 11.1716 37.3741 11.506 36.8411 11.9101ZM50.4569 15.2337C50.2531 15.2755 50.0532 15.2302 49.8572 15.0978C49.6613 14.9654 49.5241 14.8226 49.4457 14.6693C49.3516 14.4463 49.2928 14.2338 49.2693 14.0318C49.2458 13.8297 49.2262 13.5963 49.2105 13.3315L49.187 12.6208L48.2229 13.3942C47.6898 13.8401 47.1921 14.1572 46.7296 14.3453C46.2671 14.5334 45.8477 14.6275 45.4715 14.6275C45.299 14.5996 45.0913 14.4986 44.8483 14.3244C44.6053 14.1502 44.3858 13.9551 44.1898 13.7391C43.9939 13.5231 43.8567 13.3454 43.7783 13.2061C43.6842 13.011 43.6568 12.7392 43.696 12.3909C43.7352 12.0425 43.8293 11.6592 43.9782 11.2412C44.1271 10.8231 44.3153 10.412 44.5426 10.0079C44.7699 9.60376 45.0325 9.25537 45.3304 8.96273C45.8477 8.26596 46.4905 7.83047 47.2587 7.65628C48.0269 7.48208 48.7089 7.54131 49.3046 7.83396C49.5868 7.95937 49.7906 8.00815 49.916 7.98028C50.0414 7.95241 50.1198 7.86183 50.1512 7.70854C50.2139 7.48557 50.2844 7.27654 50.3628 7.08144C50.4412 6.88634 50.551 6.5937 50.6921 6.2035C51.084 5.14441 51.425 4.31525 51.715 3.71602C52.005 3.11679 52.2676 2.59421 52.5028 2.14828C52.6752 1.82776 52.8477 1.60479 53.0201 1.47937C53.1926 1.35396 53.3415 1.29821 53.467 1.31215C53.6394 1.31215 53.855 1.36789 54.1136 1.47937C54.3723 1.59086 54.5409 1.74415 54.6192 1.93925C54.682 2.06467 54.7094 2.19705 54.7016 2.33641C54.6937 2.47576 54.6428 2.62208 54.5487 2.77537C54.3449 3.10983 54.1058 3.55228 53.8315 4.10273C53.5571 4.65318 53.2827 5.25589 53.0084 5.91086C52.734 6.56583 52.4793 7.21383 52.2441 7.85486C52.009 8.49589 51.813 9.06028 51.6562 9.54802C51.5621 9.8546 51.4877 10.2448 51.4328 10.7186C51.3779 11.1924 51.3387 11.6767 51.3152 12.1714C51.2917 12.6661 51.2878 13.1051 51.3035 13.4883C51.3191 13.8715 51.3427 14.1189 51.374 14.2303C51.4681 14.5091 51.4681 14.7181 51.374 14.8574C51.28 14.9968 51.1467 15.0909 50.9742 15.1396C50.8018 15.1884 50.6293 15.2198 50.4569 15.2337ZM46.5767 12.7044C46.7962 12.6347 46.9922 12.5511 47.1646 12.4536C47.3371 12.356 47.5409 12.2306 47.7761 12.0773C48.2464 11.7568 48.5874 11.4781 48.799 11.2412C49.0106 11.0043 49.1792 10.7116 49.3046 10.3632C49.383 10.1542 49.3869 9.97305 49.3164 9.81976C49.2458 9.66647 49.1243 9.52015 48.9519 9.38079C48.7794 9.25537 48.5599 9.20312 48.2934 9.22402C48.0269 9.24492 47.7212 9.39473 47.3763 9.67344C47 9.98002 46.6786 10.3354 46.4121 10.7395C46.1456 11.1436 45.9261 11.722 45.7537 12.4745C45.7223 12.6138 45.7772 12.7114 45.9183 12.7671C46.0594 12.8229 46.2789 12.802 46.5767 12.7044ZM53.8551 14.5438C54.3176 14.9898 54.98 15.2127 55.8422 15.2127C56.1714 15.2127 56.5085 15.1535 56.8534 15.0351C57.1983 14.9166 57.4021 14.8086 57.4648 14.7111H57.653C57.7941 14.7111 57.9352 14.6274 58.0762 14.4602H58.0527C58.0998 14.4324 58.1468 14.408 58.1938 14.3871C58.2409 14.3662 58.2879 14.3487 58.3349 14.3348C58.5387 14.2373 58.7386 14.1014 58.9346 13.9272C59.1306 13.753 59.2952 13.5753 59.4284 13.3942C59.5617 13.213 59.6283 13.0806 59.6283 12.997C59.6283 12.8019 59.5225 12.6382 59.3108 12.5058C59.0992 12.3734 58.8836 12.3211 58.6642 12.349C58.5858 12.349 58.5152 12.3769 58.4525 12.4326C58.4055 12.4605 58.3349 12.4918 58.2409 12.5267C58.1468 12.5615 57.9665 12.6416 57.7 12.7671L57.7235 12.8298L57.6294 12.8716C57.4256 12.9691 57.2336 13.0841 57.0533 13.2165C56.873 13.3489 56.6418 13.4429 56.3596 13.4987C56.2969 13.5126 56.2224 13.5231 56.1362 13.53C56.0499 13.537 55.9598 13.5405 55.8657 13.5405C55.709 13.5405 55.5796 13.5196 55.4777 13.4778C55.3758 13.436 55.2935 13.3802 55.2308 13.3105C55.1524 13.1991 55.1054 13.0562 55.0897 12.882C55.074 12.7078 55.0662 12.5371 55.0662 12.3699C55.0662 12.2863 55.0858 12.1539 55.125 11.9727C55.1642 11.7916 55.2386 11.5686 55.3484 11.3038L55.466 11.0948L55.6541 11.2411C55.8736 11.3805 56.1127 11.492 56.3713 11.5756C56.63 11.6592 56.924 11.701 57.2532 11.701C57.3786 11.701 57.5001 11.6905 57.6177 11.6696C57.7353 11.6487 57.8568 11.6104 57.9822 11.5547C58.4368 11.3874 58.8719 11.0948 59.2873 10.6767C59.7028 10.2587 60.0124 9.81971 60.2162 9.35984C60.2946 9.20654 60.3495 9.04977 60.3808 8.88951C60.4122 8.72925 60.4279 8.57945 60.4279 8.44009C60.4279 7.91055 60.2907 7.50642 60.0163 7.22771C59.742 6.949 59.4245 6.76087 59.0639 6.66332C58.8601 6.59364 58.6446 6.54835 58.4172 6.52745C58.1899 6.50655 57.9822 6.49609 57.7941 6.49609C57.6216 6.49609 57.4452 6.51351 57.2649 6.54835C57.0847 6.58319 56.9161 6.63545 56.7593 6.70513C56.3361 6.87235 55.9128 7.16848 55.4895 7.59351C55.0662 8.01855 54.6782 8.51674 54.3254 9.08809C53.9727 9.65945 53.6905 10.2447 53.4788 10.844C53.2672 11.4432 53.1614 11.9936 53.1614 12.4953C53.1614 13.4151 53.3926 14.0979 53.8551 14.5438ZM57.4531 10.1124C57.3355 10.1542 57.2062 10.1751 57.0651 10.1751C56.8612 10.1751 56.7241 10.1333 56.6535 10.0496C56.583 9.96603 56.5242 9.88242 56.4772 9.7988C56.4301 9.71519 56.3361 9.67338 56.195 9.67338C56.1793 9.67338 56.1597 9.67687 56.1362 9.68384C56.1127 9.6908 56.0852 9.70125 56.0539 9.71519L56.3596 9.27622C56.532 9.02538 56.7201 8.80938 56.924 8.62822C57.1278 8.44706 57.3355 8.30771 57.5471 8.21016C57.7588 8.11261 57.9508 8.06384 58.1233 8.06384C58.186 8.06384 58.2409 8.07429 58.2879 8.09519C58.3349 8.11609 58.3741 8.14745 58.4055 8.18925C58.5936 8.38435 58.6328 8.67003 58.5231 9.04629C58.4133 9.42255 58.1703 9.72913 57.7941 9.96603C57.6843 10.0218 57.5707 10.0705 57.4531 10.1124ZM72.7031 15.0246C72.4836 14.9131 72.2955 14.8121 72.1387 14.7215C71.982 14.6309 71.8683 14.4742 71.7977 14.2512C71.7272 14.0282 71.6919 13.6798 71.6919 13.206C71.6919 12.9552 71.6841 12.7531 71.6684 12.5998L71.6449 12.3699L71.4332 12.558C71.2921 12.6834 71.1119 12.8994 70.8924 13.206C70.5475 13.7774 70.2378 14.1536 69.9635 14.3348C69.6891 14.516 69.4657 14.6344 69.2933 14.6902C69.2149 14.718 69.066 14.7076 68.8465 14.6588C68.627 14.61 68.3879 14.5369 68.1292 14.4393C67.8706 14.3418 67.6472 14.2442 67.459 14.1467C67.2709 14.0491 67.1612 13.9585 67.1298 13.8749C67.0984 13.8053 67.0828 13.6485 67.0828 13.4046C67.0828 13.1607 67.0945 12.889 67.118 12.5894C67.1416 12.2898 67.1768 12.0111 67.2239 11.7533C67.2709 11.4954 67.3258 11.3108 67.3885 11.1993C67.3885 11.1575 67.4002 11.1122 67.4237 11.0634C67.4473 11.0147 67.4355 10.9624 67.3885 10.9067L67.5413 10.4468C67.6432 10.1402 67.7687 9.7779 67.9176 9.35983C68.0665 8.94177 68.2076 8.54809 68.3409 8.1788C68.4741 7.80951 68.5721 7.56216 68.6348 7.43674C68.6348 7.32525 68.6544 7.2068 68.6936 7.08138C68.7328 6.95596 68.7524 6.86538 68.7524 6.80964C68.7524 6.68422 68.8308 6.55184 68.9876 6.41248C69.2071 6.17558 69.4383 6.06758 69.6813 6.08848C69.9243 6.10938 70.1242 6.17558 70.281 6.28706C70.4377 6.42642 70.5671 6.56577 70.669 6.70512C70.7709 6.84448 70.8218 7.01519 70.8218 7.21725C70.8218 7.41932 70.7434 7.69454 70.5867 8.04293C70.4299 8.34951 70.2726 8.67351 70.1149 9.01493C69.9571 9.35635 69.8214 9.6699 69.7076 9.95558C69.5938 10.2413 69.5106 10.4607 69.4579 10.614C69.4579 10.7116 69.4383 10.8056 69.3991 10.8962C69.3599 10.9868 69.3403 11.06 69.3403 11.1157C69.2933 11.1575 69.2658 11.2063 69.258 11.262C69.2502 11.3178 69.2463 11.3735 69.2463 11.4293C69.2463 11.485 69.2227 11.5791 69.1757 11.7114C69.1287 11.8438 69.1052 11.9867 69.1052 12.14C69.0424 12.4047 69.0542 12.5545 69.1404 12.5894C69.2267 12.6242 69.3325 12.6138 69.4579 12.558C69.5049 12.5023 69.5755 12.4047 69.6695 12.2654C69.7636 12.126 69.8655 11.9797 69.9753 11.8264C70.038 11.6592 70.1046 11.5477 70.1751 11.492C70.2457 11.4362 70.3045 11.3874 70.3515 11.3456C70.3985 11.3038 70.4221 11.2272 70.4221 11.1157C70.4221 11.06 70.4965 10.945 70.6455 10.7708C70.7944 10.5966 70.9551 10.398 71.1275 10.1751C71.4568 9.67338 71.6606 9.35287 71.739 9.21351C71.8644 9.01842 71.9937 8.84771 72.127 8.70138C72.2602 8.55506 72.3817 8.37042 72.4915 8.14745C72.5542 8.03596 72.6404 7.90358 72.7502 7.75029C72.8599 7.597 73.001 7.52035 73.1734 7.52035C73.3459 7.52035 73.4596 7.53429 73.5144 7.56216C73.5693 7.59003 73.6203 7.68061 73.6673 7.8339C73.7927 7.93145 73.922 8.08474 74.0553 8.29377C74.1886 8.5028 74.2552 8.65609 74.2552 8.75364C74.1925 8.80938 74.1572 8.87558 74.1494 8.95222L74.1376 9.06719C74.1376 9.109 74.1102 9.23442 74.0553 9.44345C74.0004 9.65248 73.9181 9.85454 73.8084 10.0496C73.683 10.5234 73.5771 10.9903 73.4909 11.4502C73.4047 11.91 73.3577 12.2933 73.3498 12.5998C73.342 12.9064 73.3772 13.0876 73.4556 13.1433C73.5497 13.1991 73.6438 13.1433 73.7378 12.9761C73.8319 12.8089 74.0514 12.4953 74.3963 12.0354C74.4747 11.924 74.6236 11.7428 74.8431 11.492C75.0626 11.2411 75.2193 11.0182 75.3134 10.8231C75.3134 10.7534 75.3604 10.6384 75.4545 10.4782C75.5486 10.3179 75.6426 10.1437 75.7367 9.95558C75.8308 9.76745 75.8778 9.61067 75.8778 9.48525C75.8621 9.45738 75.9405 9.33196 76.113 9.109C76.2854 8.88603 76.45 8.60035 76.6068 8.25196C76.7792 7.86177 77.0222 7.60396 77.3358 7.47854C77.6493 7.35313 77.9355 7.33571 78.1941 7.42629C78.4528 7.51687 78.5586 7.68061 78.5116 7.91751C78.4332 8.39132 78.2568 8.93829 77.9825 9.55842C77.7081 10.1785 77.3946 10.7987 77.0418 11.4188C76.6891 12.0389 76.3403 12.5859 75.9954 13.0597C75.87 13.1573 75.7602 13.2722 75.6661 13.4046C75.5721 13.537 75.5251 13.6311 75.5251 13.6868C75.5251 13.7147 75.4584 13.8039 75.3252 13.9546C75.1919 14.1053 75.0312 14.276 74.8431 14.4668C74.655 14.6575 74.459 14.8086 74.2552 14.9201C74.0514 15.0594 73.8045 15.1361 73.5144 15.15C73.2244 15.164 72.954 15.1222 72.7031 15.0246ZM79.4994 14.0213C79.7032 14.1049 79.8364 14.1467 79.8991 14.1467C80.0716 14.1467 80.2166 14.0666 80.3342 13.9063C80.4518 13.7461 80.6281 13.4639 80.8633 13.0598C81.1768 12.5023 81.463 11.9519 81.7216 11.4084C81.9803 10.8649 82.188 10.3946 82.3448 9.99743C82.5016 9.60027 82.58 9.35291 82.58 9.25536C82.58 8.89304 82.5016 8.57601 82.3448 8.30427C82.188 8.03253 81.9999 7.84091 81.7804 7.72943C81.5609 7.61794 81.3493 7.62491 81.1455 7.75033C80.973 7.84788 80.8751 7.96633 80.8515 8.10569C80.828 8.24504 80.8163 8.34259 80.8163 8.39833C80.8006 8.45407 80.73 8.61782 80.6046 8.88956C80.4792 9.1613 80.3303 9.4853 80.1578 9.86156C79.9854 10.2378 79.8011 10.6245 79.6052 11.0217C79.4092 11.4188 79.2289 11.7742 79.0643 12.0878C78.8997 12.4013 78.7704 12.6347 78.6763 12.788C78.6136 12.9413 78.6371 13.0807 78.7468 13.2061C78.8566 13.3315 78.9663 13.4221 79.0761 13.4778C79.0761 13.5336 79.0957 13.6032 79.1349 13.6868C79.1741 13.7705 79.1936 13.8401 79.1936 13.8959L79.4994 14.0213ZM82.4271 5.91085C82.6858 6.06414 82.9092 6.14078 83.0973 6.14078C83.5049 6.14078 83.795 6.06762 83.9674 5.9213C84.1399 5.77498 84.2261 5.54852 84.2261 5.24194C84.2261 4.93536 84.085 4.66014 83.8028 4.41627C83.5206 4.1724 83.2933 3.87627 83.1208 3.52788C83.0111 3.47214 82.87 3.42336 82.6976 3.38156C82.5251 3.33975 82.3762 3.31885 82.2507 3.31885C82.2507 3.34672 82.1841 3.45123 82.0509 3.6324C81.9176 3.81356 81.7804 3.9982 81.6393 4.18633C81.4982 4.37446 81.4277 4.50336 81.4277 4.57304C81.4277 4.83782 81.5296 5.08865 81.7334 5.32556C81.9372 5.56246 82.1684 5.75756 82.4271 5.91085ZM85.9663 16.0908C85.1981 16.0769 84.7082 15.8853 84.4965 15.516C84.2849 15.1467 84.2261 14.6834 84.3202 14.1259C84.4142 13.8612 84.473 13.6208 84.4965 13.4048C84.5201 13.1888 84.5867 13.0529 84.6964 12.9972L84.7317 12.9345C84.7552 12.8926 84.7435 12.8508 84.6964 12.809C84.6964 12.6279 84.767 12.377 84.9081 12.0565C84.9394 11.9729 84.9825 11.8719 85.0374 11.7534L85.1197 11.5757C85.0413 11.4643 85.0413 11.3737 85.1197 11.304C85.1981 11.2343 85.2804 11.1681 85.3666 11.1054C85.4529 11.0427 85.4568 10.9695 85.3784 10.8859C85.347 10.8302 85.3862 10.7013 85.496 10.4992C85.6057 10.2972 85.7311 10.0846 85.8722 9.86168C86.0133 9.63871 86.1074 9.46452 86.1544 9.3391C86.1544 9.31122 86.1936 9.21368 86.272 9.04645C86.3504 8.87923 86.4445 8.68413 86.5542 8.46116C86.6639 8.23819 86.7698 8.03613 86.8717 7.85497L87.0716 7.49961C87.2283 7.42993 87.1656 7.38116 86.8834 7.35329C86.6012 7.32542 86.3034 7.31845 85.9898 7.33239C85.5038 7.31845 85.1158 7.29755 84.8258 7.26968C84.5357 7.24181 84.2966 7.1791 84.1085 7.08155C83.9204 6.88645 83.8969 6.65303 84.038 6.38129C84.1791 6.10955 84.4064 5.96671 84.7199 5.95277C84.9237 5.93884 85.0844 5.93187 85.202 5.93187C85.3196 5.93187 85.4764 5.92142 85.6723 5.90052C85.8683 5.87961 86.1779 5.84826 86.6012 5.80645L87.8006 5.72284L87.8711 5.36748C87.9965 5.18632 88.0827 5.06787 88.1298 5.01213C88.1768 4.95639 88.2082 4.89716 88.2238 4.83445C88.2395 4.77174 88.263 4.65677 88.2944 4.48955L88.506 4.14464C88.6471 3.91471 88.7334 3.67432 88.7647 3.42348C88.9528 3.14477 89.1175 2.89045 89.2586 2.66052C89.3997 2.43058 89.4859 2.28774 89.5172 2.232C89.7837 1.88361 90.0463 1.69548 90.305 1.66761C90.5637 1.63974 90.8106 1.69548 91.0458 1.83484C91.1869 1.90452 91.3201 1.99161 91.4456 2.09613C91.571 2.20064 91.6494 2.33303 91.6807 2.49329C91.7121 2.65355 91.6415 2.8591 91.4691 3.10993C91.4377 3.16568 91.3907 3.26671 91.328 3.41303C91.2653 3.55935 91.2182 3.68129 91.1869 3.77884C91.0928 3.87639 90.9791 4.03316 90.8459 4.24916C90.7126 4.46516 90.6225 4.68464 90.5755 4.90761C90.45 5.14452 90.3717 5.29084 90.3403 5.34658C90.3089 5.40232 90.2619 5.43019 90.1992 5.43019C90.2306 5.56955 90.3246 5.63574 90.4814 5.62877C90.6382 5.62181 90.8968 5.61135 91.2574 5.59742C91.5553 5.56955 91.763 5.53819 91.8806 5.50335C91.9982 5.46852 92.1354 5.48593 92.2921 5.55561C92.3705 5.65316 92.4136 5.796 92.4215 5.98413C92.4293 6.17226 92.4019 6.35342 92.3392 6.52761C92.2765 6.70181 92.1902 6.80981 92.0805 6.85161C92.0021 6.85161 91.8414 6.88994 91.5984 6.96658C91.3554 7.04323 91.0536 7.08852 90.693 7.10245L89.4467 7.20697L89.0469 7.91768C88.9372 8.09884 88.8431 8.26258 88.7647 8.4089C88.6863 8.55523 88.6315 8.64232 88.6001 8.67019C88.6001 8.75381 88.5492 8.87923 88.4473 9.04645C88.3453 9.21368 88.2395 9.39484 88.1298 9.58994C88.0357 9.82684 87.9299 10.0428 87.8123 10.2379L87.6359 10.5306C87.5732 10.5306 87.5419 10.5724 87.5419 10.656C87.6203 10.8232 87.5967 10.9486 87.4713 11.0323C87.3929 11.0741 87.3263 11.1333 87.2714 11.2099L87.1891 11.3249C87.2518 11.3806 87.2636 11.4503 87.2244 11.5339C87.1852 11.6175 87.1343 11.7081 87.0716 11.8057C87.0716 11.9172 87.0363 12.0774 86.9657 12.2865C86.8952 12.4955 86.8207 12.6906 86.7423 12.8717C86.758 13.1226 86.7737 13.2828 86.7894 13.3525C86.805 13.4222 86.8442 13.4501 86.9069 13.4361C86.9853 13.4501 87.0951 13.4501 87.2362 13.4361C87.3773 13.4222 87.4809 13.4152 87.547 13.4152C87.7787 13.3177 87.6673 13.8037 87.2127 14.8732C86.9618 15.2251 86.711 15.516 86.4601 15.7459C86.2093 15.9759 86.0447 16.0908 85.9663 16.0908ZM92.1157 13.9273C92.2489 14.0179 92.3704 14.0562 92.4802 14.0422C92.7937 14.0283 93.0602 13.9203 93.2797 13.7182C93.4992 13.5162 93.703 13.3106 93.8911 13.1016C94.189 12.7671 94.53 12.4362 94.9141 12.1087C95.2982 11.7812 95.6862 11.4816 96.0781 11.2099C96.4701 10.9381 96.8267 10.7221 97.1481 10.5619C97.4695 10.4016 97.7243 10.3215 97.9124 10.3215C98.0849 10.3215 98.1632 10.4573 98.1476 10.7291C98.1319 11.0008 98.0927 11.4433 98.03 12.0564C98.0143 12.4884 98.0574 12.8299 98.1593 13.0807C98.2612 13.3315 98.4611 13.5475 98.759 13.7287C99.0725 13.882 99.3743 13.9308 99.6644 13.875C99.9544 13.8193 100.288 13.6799 100.664 13.457C100.821 13.3733 100.962 13.227 101.087 13.018C101.213 12.809 101.228 12.6487 101.134 12.5372C101.071 12.5093 101.005 12.4675 100.934 12.4118C100.864 12.356 100.789 12.3073 100.711 12.2655L100.464 12.2028C100.299 12.161 100.131 12.1679 99.9583 12.2237H99.7702L99.9818 11.513C100.013 11.3597 100.064 11.1297 100.135 10.8231C100.205 10.5166 100.24 10.3075 100.24 10.196C100.272 9.79192 100.268 9.46792 100.229 9.22405C100.19 8.98018 100.092 8.76766 99.9348 8.5865C99.7623 8.3496 99.5742 8.16495 99.3704 8.03256C99.1666 7.90018 98.9706 7.83398 98.7825 7.83398C98.6257 7.83398 98.4611 7.84792 98.2887 7.87579C98.1162 7.90366 97.9516 7.94547 97.7948 8.00121C97.638 8.05695 97.4891 8.12663 97.348 8.21024C97.2696 8.26598 97.1912 8.31824 97.1129 8.36702C97.0345 8.41579 96.9796 8.45411 96.9482 8.48198C96.9012 8.49592 96.8581 8.53076 96.8189 8.5865C96.7797 8.64224 96.7444 8.69102 96.7131 8.73282L96.4897 8.87914C96.3407 8.97669 96.18 9.08121 96.0076 9.19269C95.8195 9.30418 95.6313 9.4296 95.4432 9.56895C95.2551 9.70831 95.0356 9.87553 94.7848 10.0706C94.5653 10.2518 94.385 10.4016 94.2439 10.52C94.1028 10.6385 93.993 10.7395 93.9147 10.8231C93.9303 10.7117 93.9538 10.6002 93.9852 10.4887C94.0166 10.3772 94.0401 10.2866 94.0558 10.217C94.1028 10.1055 94.1498 9.97308 94.1968 9.81979C94.2439 9.6665 94.2752 9.54805 94.2909 9.46443L94.3732 9.31811L94.5496 9.00456C94.6123 8.89308 94.6868 8.75373 94.773 8.5865C94.8592 8.41927 94.9102 8.30082 94.9258 8.23114C95.161 7.71553 95.3962 7.15114 95.6313 6.53798C95.8665 5.92482 96.1056 5.30818 96.3486 4.68805C96.5916 4.06792 96.8385 3.50702 97.0893 3.00534C97.2775 2.72663 97.3323 2.43747 97.254 2.13785C97.1756 1.83824 97.0345 1.58043 96.8307 1.36443C96.6269 1.14843 96.4152 1.03347 96.1957 1.01953C96.0546 1.01953 95.8939 1.07179 95.7136 1.17631C95.5333 1.28082 95.4432 1.38882 95.4432 1.50031C95.4118 1.61179 95.357 1.75811 95.2786 1.93927C95.2002 2.12043 95.0748 2.42005 94.9023 2.83811L94.1263 4.7194C93.8755 5.36043 93.6638 5.88998 93.4914 6.30805C93.3189 6.72611 93.1739 7.0954 93.0563 7.41592C92.9387 7.73643 92.8251 8.07089 92.7153 8.41927C92.6683 8.53076 92.5978 8.6945 92.5037 8.9105C92.4096 9.1265 92.3195 9.34947 92.2333 9.5794C92.147 9.80934 92.0882 10.0079 92.0569 10.1751C91.9001 10.6071 91.7669 11.0113 91.6571 11.3875C91.5474 11.7638 91.4533 12.0634 91.3749 12.2864C91.3436 12.4954 91.3279 12.6766 91.3279 12.8299C91.3279 12.9831 91.3592 13.1225 91.422 13.2479C91.4847 13.3733 91.5944 13.5197 91.7512 13.6869C91.8609 13.7566 91.9824 13.8367 92.1157 13.9273ZM108.989 14.3346C108.832 14.251 108.659 14.129 108.471 13.9688C108.283 13.8085 108.189 13.6518 108.189 13.4985C108.189 13.2894 108.22 13.0281 108.283 12.7146C108.346 12.401 108.408 12.1328 108.471 11.9098C108.503 11.659 108.546 11.4047 108.6 11.1468C108.655 10.889 108.761 10.6487 108.918 10.4257C109.09 9.89614 109.271 9.37007 109.459 8.84749C109.647 8.32491 109.812 7.78491 109.953 7.22749C110.156 6.71188 110.341 6.25549 110.505 5.85833C110.67 5.46117 110.878 4.95601 111.128 4.34285C111.27 3.99446 111.391 3.62169 111.493 3.22453C111.595 2.82736 111.756 2.46853 111.975 2.14801C112.069 2.02259 112.144 1.91459 112.198 1.82401C112.253 1.73343 112.312 1.64633 112.375 1.56272C112.391 1.50698 112.473 1.4582 112.622 1.4164C112.771 1.37459 112.927 1.3502 113.092 1.34324C113.257 1.33627 113.37 1.36762 113.433 1.4373C113.48 1.42336 113.56 1.47573 113.672 1.5944C113.784 1.71307 113.89 1.84546 113.989 1.99156C114.089 2.13767 114.131 2.25253 114.115 2.33614C114.115 2.39188 114.103 2.46853 114.08 2.56607C114.056 2.66362 114.013 2.7542 113.95 2.83782C113.888 2.89356 113.829 2.97369 113.774 3.0782C113.719 3.18272 113.637 3.32556 113.527 3.50672C113.464 3.68788 113.41 3.87253 113.363 4.06065C113.315 4.24878 113.253 4.41949 113.174 4.57278C113.112 4.74001 113.037 4.90027 112.951 5.05356C112.865 5.20685 112.806 5.33227 112.775 5.42982C112.665 5.75033 112.536 6.06388 112.387 6.37046C112.238 6.67704 112.108 7.00453 111.999 7.35291C111.889 7.68736 111.779 8.03227 111.669 8.38762C111.56 8.74298 111.403 9.08091 111.199 9.40143C111.089 9.55472 111.011 9.74982 110.964 9.98672L110.823 10.6974C110.729 10.9483 110.646 11.1817 110.576 11.3977C110.505 11.6137 110.47 11.7496 110.47 11.8053C110.376 12.1119 110.309 12.415 110.27 12.7146C110.231 13.0142 110.149 13.2755 110.023 13.4985C110.008 13.6378 109.953 13.7911 109.859 13.9583C109.765 14.1256 109.643 14.251 109.494 14.3346C109.345 14.4182 109.177 14.4182 108.989 14.3346ZM113.68 14.5857C113.797 14.6553 113.958 14.6902 114.162 14.6902C114.523 14.6623 114.891 14.6275 115.267 14.5857C115.644 14.5439 115.996 14.4254 116.325 14.2303C116.78 13.9934 117.196 13.7356 117.572 13.4569C117.948 13.1782 118.332 12.788 118.724 12.2863C119.351 11.492 119.735 10.7917 119.876 10.1855C120.017 9.57934 120.065 9.06721 120.017 8.64915C119.97 8.27289 119.872 7.96631 119.724 7.7294C119.575 7.4925 119.32 7.30437 118.959 7.16502C118.724 6.94205 118.422 6.83057 118.054 6.83057C117.685 6.83057 117.329 6.86541 116.984 6.93508C116.639 7.00476 116.298 7.13018 115.961 7.31134C115.624 7.4925 115.259 7.7294 114.867 8.02205C114.679 8.1614 114.472 8.34605 114.244 8.57599C114.017 8.80592 113.809 9.03586 113.621 9.26579C113.433 9.49573 113.292 9.68037 113.198 9.81973C112.963 10.1542 112.778 10.5061 112.645 10.8753C112.512 11.2446 112.461 11.485 112.492 11.5965C112.524 11.7498 112.492 11.8264 112.398 11.8264C112.367 11.8822 112.336 11.9205 112.304 11.9414C112.273 11.9623 112.296 12.0076 112.375 12.0773L112.387 12.234C112.394 12.3386 112.375 12.4466 112.328 12.5581C112.281 12.795 112.347 13.0737 112.528 13.3942C112.708 13.7147 112.947 14.0143 113.245 14.293C113.417 14.4184 113.562 14.516 113.68 14.5857ZM117.301 11.262C117.152 11.5826 116.906 11.8752 116.561 12.14C116.122 12.5162 115.749 12.7427 115.444 12.8193C115.138 12.896 114.918 12.8472 114.785 12.673C114.652 12.4988 114.609 12.2375 114.656 11.8891C114.813 11.2342 115.091 10.6802 115.491 10.2273C115.89 9.77444 116.325 9.37379 116.796 9.0254C117.015 8.88605 117.196 8.79199 117.337 8.74321C117.478 8.69444 117.619 8.71882 117.76 8.81637C117.854 8.84424 117.909 8.95224 117.925 9.14037C117.94 9.3285 117.936 9.52011 117.913 9.71521C117.889 9.91031 117.846 10.0497 117.783 10.1333C117.611 10.5653 117.45 10.9415 117.301 11.262ZM123.521 14.481C123.396 14.4949 123.161 14.4322 122.816 14.2929C122.471 14.1535 122.204 13.9932 122.016 13.8121C121.907 13.6588 121.805 13.4054 121.711 13.0519C121.617 12.6984 121.546 12.3047 121.499 11.8709C121.452 11.437 121.428 11.0459 121.428 10.6975C121.444 10.3491 121.487 9.9624 121.558 9.53737C121.628 9.11234 121.699 8.71866 121.769 8.35634C121.84 7.99401 121.891 7.75014 121.922 7.62472C122.063 7.48537 122.244 7.36343 122.463 7.25892C122.683 7.1544 122.89 7.08821 123.086 7.06034C123.282 7.03246 123.427 7.08124 123.521 7.20666C123.741 7.30421 123.878 7.50976 123.933 7.8233C123.988 8.13685 123.945 8.43298 123.804 8.71169C123.804 8.78137 123.788 8.87543 123.757 8.99388C123.725 9.11234 123.694 9.22034 123.662 9.31788C123.537 9.51298 123.467 9.68717 123.451 9.84046C123.451 9.97982 123.474 10.1401 123.521 10.3212C123.568 10.5024 123.529 10.6696 123.404 10.8229V10.802C123.388 10.8996 123.369 11.025 123.345 11.1783C123.322 11.3316 123.314 11.4814 123.322 11.6277C123.329 11.774 123.372 11.8959 123.451 11.9935C123.467 12.1189 123.521 12.2025 123.615 12.2443C123.71 12.2861 123.874 12.2165 124.109 12.0353C124.297 11.8681 124.489 11.6765 124.685 11.4605C124.881 11.2445 125.058 11.0285 125.215 10.8125C125.371 10.5965 125.493 10.4083 125.579 10.2481C125.665 10.0878 125.693 9.97982 125.661 9.92408C125.599 9.81259 125.634 9.71853 125.767 9.64188C125.9 9.56524 126.014 9.49208 126.108 9.4224C126.187 9.33879 126.234 9.25169 126.249 9.16111C126.265 9.07053 126.304 8.97647 126.367 8.87892C126.445 8.80924 126.508 8.71169 126.555 8.58627C126.508 8.48872 126.543 8.40163 126.661 8.32498C126.778 8.24834 126.853 8.16821 126.884 8.08459C126.931 7.84769 127.049 7.67698 127.237 7.57246C127.425 7.46795 127.629 7.42614 127.848 7.44705C128.068 7.46795 128.252 7.54111 128.401 7.66653C128.55 7.79195 128.617 7.97311 128.601 8.21001C128.585 8.37724 128.514 8.62111 128.387 8.94163C128.26 9.26214 128.099 9.60356 127.905 9.96588C127.71 10.3282 127.496 10.6557 127.26 10.9483C127.182 11.0598 127.112 11.1713 127.049 11.2828C126.986 11.3943 126.888 11.5406 126.755 11.7218C126.622 11.9029 126.398 12.1677 126.085 12.5161C125.959 12.6276 125.834 12.7425 125.708 12.861C125.583 12.9794 125.458 13.0874 125.332 13.185C125.034 13.4916 124.713 13.7807 124.368 14.0525C124.023 14.3242 123.741 14.467 123.521 14.481ZM129.248 14.5438C129.71 14.9898 130.373 15.2127 131.235 15.2127C131.564 15.2127 131.901 15.1535 132.246 15.0351C132.591 14.9166 132.795 14.8086 132.857 14.7111H133.046C133.187 14.7111 133.328 14.6274 133.469 14.4602H133.445C133.492 14.4324 133.539 14.408 133.586 14.3871C133.633 14.3662 133.68 14.3487 133.728 14.3348C133.931 14.2373 134.131 14.1014 134.327 13.9272C134.523 13.753 134.688 13.5753 134.821 13.3942C134.954 13.213 135.021 13.0806 135.021 12.997C135.021 12.8019 134.915 12.6382 134.703 12.5058C134.492 12.3734 134.276 12.3211 134.057 12.349C133.978 12.349 133.908 12.3769 133.845 12.4326C133.798 12.4605 133.727 12.4918 133.633 12.5267C133.539 12.5615 133.359 12.6416 133.093 12.7671L133.116 12.8298L133.022 12.8716C132.818 12.9691 132.626 13.0841 132.446 13.2165C132.266 13.3489 132.034 13.4429 131.752 13.4987C131.689 13.5126 131.615 13.5231 131.529 13.53C131.443 13.537 131.352 13.5405 131.258 13.5405C131.102 13.5405 130.972 13.5196 130.87 13.4778C130.768 13.436 130.686 13.3802 130.623 13.3105C130.545 13.1991 130.498 13.0562 130.482 12.882C130.467 12.7078 130.459 12.5371 130.459 12.3699C130.459 12.2863 130.478 12.1539 130.518 11.9727C130.557 11.7916 130.631 11.5686 130.741 11.3038L130.859 11.0948L131.047 11.2411C131.266 11.3805 131.505 11.492 131.764 11.5756C132.023 11.6592 132.317 11.701 132.646 11.701C132.771 11.701 132.893 11.6905 133.01 11.6696C133.128 11.6487 133.249 11.6104 133.375 11.5547C133.829 11.3874 134.264 11.0948 134.68 10.6767C135.095 10.2587 135.405 9.81971 135.609 9.35984C135.687 9.20654 135.742 9.04977 135.773 8.88951C135.805 8.72925 135.82 8.57945 135.82 8.44009C135.82 7.91055 135.683 7.50642 135.409 7.22771C135.135 6.949 134.817 6.76087 134.456 6.66332C134.253 6.59364 134.037 6.54835 133.81 6.52745C133.582 6.50655 133.375 6.49609 133.187 6.49609C133.014 6.49609 132.838 6.51351 132.658 6.54835C132.477 6.58319 132.309 6.63545 132.152 6.70513C131.729 6.87235 131.305 7.16848 130.882 7.59351C130.459 8.01855 130.071 8.51674 129.718 9.08809C129.365 9.65945 129.083 10.2447 128.871 10.844C128.66 11.4432 128.554 11.9936 128.554 12.4953C128.554 13.4151 128.785 14.0979 129.248 14.5438ZM132.846 10.1124C132.728 10.1542 132.599 10.1751 132.458 10.1751C132.254 10.1751 132.117 10.1333 132.046 10.0496C131.976 9.96603 131.917 9.88242 131.87 9.7988C131.823 9.71519 131.729 9.67338 131.588 9.67338C131.572 9.67338 131.552 9.67687 131.529 9.68384C131.505 9.6908 131.478 9.70125 131.446 9.71519L131.752 9.27622C131.925 9.02538 132.113 8.80938 132.317 8.62822C132.52 8.44706 132.728 8.30771 132.94 8.21016C133.151 8.11261 133.343 8.06384 133.516 8.06384C133.579 8.06384 133.633 8.07429 133.68 8.09519C133.728 8.11609 133.767 8.14745 133.798 8.18925C133.986 8.38435 134.025 8.67003 133.916 9.04629C133.806 9.42255 133.563 9.72913 133.187 9.96603C133.077 10.0218 132.963 10.0705 132.846 10.1124Z" fill="white"/>
<path id="Union_2" fill-rule="evenodd" clip-rule="evenodd" d="M137.925 32.3742C137.486 32.4439 137.141 32.2802 136.891 31.883C136.64 31.4858 136.655 30.7856 136.938 29.7822C137.032 29.615 137.11 29.4513 137.173 29.291C137.235 29.1307 137.267 29.0018 137.267 28.9043C137.329 28.7231 137.412 28.5106 137.514 28.2667C137.616 28.0229 137.721 27.7929 137.831 27.5769C137.941 27.3609 138.019 27.2181 138.066 27.1484C138.129 27.1484 138.196 27.0996 138.266 27.0021C138.337 26.9045 138.372 26.807 138.372 26.7094C138.372 26.598 138.399 26.4725 138.454 26.3332C138.509 26.1938 138.568 26.0963 138.631 26.0405C138.631 25.9709 138.662 25.8942 138.725 25.8106C138.787 25.727 138.819 25.6573 138.819 25.6016C138.819 25.5458 138.838 25.4971 138.878 25.4553C138.917 25.4134 138.936 25.3647 138.936 25.3089C139.077 25.086 139.262 24.755 139.489 24.316C139.716 23.8771 139.944 23.4137 140.171 22.926C140.398 22.4382 140.59 22.0062 140.747 21.63C140.904 21.2537 140.982 21.0238 140.982 20.9402C141.014 20.8287 141.061 20.7242 141.123 20.6266C141.186 20.5291 141.28 20.4942 141.406 20.5221C141.468 20.4803 141.562 20.4559 141.688 20.4489C141.813 20.442 141.907 20.4385 141.97 20.4385L142.182 20.5221C142.323 20.5778 142.448 20.6614 142.558 20.7729C142.683 20.8705 142.754 21.0029 142.77 21.1701C142.785 21.3373 142.793 21.5045 142.793 21.6718C142.777 21.9365 142.668 22.2362 142.464 22.5706C142.26 22.9051 142.033 23.2743 141.782 23.6785C141.625 23.9433 141.472 24.1941 141.323 24.431C141.174 24.6679 141.1 24.8142 141.1 24.87C141.1 24.9257 141.069 25.0093 141.006 25.1208C140.943 25.2323 140.873 25.3716 140.794 25.5389C140.7 25.6782 140.611 25.8454 140.527 26.0405C140.442 26.2356 140.367 26.4133 140.3 26.5736C140.234 26.7338 140.201 26.8349 140.201 26.8767C140.189 26.9324 140.171 26.9882 140.147 27.0439C140.124 27.0996 140.081 27.1554 140.018 27.2111C139.955 27.2111 139.92 27.2494 139.912 27.3261L139.901 27.4411C139.901 27.4968 139.865 27.6257 139.795 27.8278C139.724 28.0298 139.611 28.2702 139.454 28.5489C139.156 29.2875 138.944 29.8763 138.819 30.3153C138.693 30.7542 138.615 31.127 138.584 31.4336C138.552 31.768 138.466 31.9945 138.325 32.1129C138.184 32.2314 138.051 32.3185 137.925 32.3742ZM136.674 35.6188C136.348 35.7272 136.075 35.7774 135.854 35.7692C135.634 35.761 135.391 35.6676 135.127 35.4888C134.813 35.2105 134.707 34.9284 134.809 34.6425C134.911 34.3567 135.189 34.0813 135.644 33.8165C135.958 33.6354 136.189 33.5413 136.338 33.5343C136.487 33.5274 136.71 33.5796 137.008 33.6911C137.541 33.9838 137.778 34.3084 137.717 34.6651C137.657 35.0217 137.31 35.3396 136.674 35.6188ZM16.4644 37.0982C16.1822 37.0285 15.9549 36.9693 15.7825 36.9205L15.5238 36.8474C15.5551 36.7777 15.5434 36.715 15.4885 36.6592C15.4336 36.6035 15.32 36.5687 15.1475 36.5547C14.9124 36.4154 14.6694 36.2203 14.4185 35.9694C14.1677 35.7186 13.9482 35.4608 13.7601 35.196C13.5719 34.9312 13.4465 34.7361 13.3838 34.6107C13.2741 34.4017 13.2819 34.2728 13.4073 34.224C13.5327 34.1752 13.6817 34.116 13.8541 34.0463C14.0266 33.9348 14.2108 33.8512 14.4068 33.7955C14.6027 33.7398 14.7634 33.8303 14.8888 34.0672C15.0926 34.3878 15.4101 34.6595 15.8412 34.8825C16.2724 35.1054 16.7662 35.2378 17.3228 35.2796C17.8793 35.3214 18.4398 35.2378 19.0042 35.0288C19.3804 34.8755 19.5842 34.663 19.6156 34.3912C19.6469 34.1195 19.5294 33.8025 19.2628 33.4401C19.2158 33.3287 19.1492 33.2381 19.063 33.1684C18.9767 33.0987 18.8513 33.0081 18.6867 32.8967C18.5221 32.7852 18.2908 32.604 17.993 32.3532C17.7578 32.2556 17.5422 32.165 17.3463 32.0814C17.1503 31.9978 16.9426 31.9072 16.7231 31.8097C16.4723 31.6982 16.1901 31.5414 15.8765 31.3394C15.563 31.1373 15.2729 30.9143 15.0064 30.6705C14.7399 30.4266 14.5361 30.1932 14.395 29.9702C14.1442 29.7612 13.9874 29.472 13.9247 29.1027C13.862 28.7334 13.8737 28.3398 13.96 27.9217C14.0462 27.5036 14.1912 27.1274 14.395 26.7929C14.4891 26.5978 14.6615 26.3435 14.9124 26.0299C15.1632 25.7164 15.4438 25.3921 15.7542 25.0571C16.0645 24.7221 16.3663 24.419 16.6595 24.1478C16.9527 23.8766 17.1856 23.6923 17.358 23.5947C17.4835 23.4832 17.6167 23.3683 17.7578 23.2498L17.9694 23.0721C17.9851 23.0025 18.0126 22.9676 18.0518 22.9676H18.1105C18.1889 22.9258 18.3614 22.8561 18.6279 22.7586C18.8944 22.661 19.1845 22.4799 19.498 22.2151C20.5484 21.7692 21.442 21.4661 22.1788 21.3058C22.9157 21.1456 23.4957 21.0654 23.919 21.0654C24.311 21.0794 24.6951 21.1734 25.0713 21.3476C25.4476 21.5218 25.7729 21.7413 26.0472 22.0061C26.3216 22.2708 26.4823 22.5705 26.5293 22.9049C26.6391 23.2394 26.5881 23.64 26.3765 24.1068C26.1648 24.5737 25.8748 25.0127 25.5064 25.4238C25.138 25.8348 24.7578 26.1379 24.3658 26.333C23.9269 26.5003 23.5545 26.5212 23.2488 26.3958C22.9431 26.2703 22.7981 26.0752 22.8138 25.8105C22.8138 25.699 22.8569 25.5666 22.9431 25.4133C23.0293 25.26 23.2684 24.9883 23.6604 24.5981C24.162 23.9431 24.4285 23.4763 24.4599 23.1976C24.4913 22.9188 24.3502 22.7586 24.0366 22.7168C23.9425 22.6889 23.7623 22.6959 23.4957 22.7377C23.2292 22.7795 22.9431 22.8318 22.6374 22.8945C22.3317 22.9572 22.0652 23.0234 21.8379 23.093C21.6105 23.1627 21.4969 23.2115 21.4969 23.2394V23.3021C21.4969 23.3439 21.4655 23.3578 21.4028 23.3439C21.3715 23.3439 21.2659 23.3877 21.0863 23.4753C20.9066 23.563 20.691 23.678 20.4396 23.8202C20.1881 23.9625 19.9409 24.1068 19.6979 24.2532C19.4549 24.3995 19.2462 24.5294 19.072 24.6428C18.8977 24.7563 18.8045 24.825 18.7925 24.8489C18.7612 25.0022 18.5809 25.1416 18.2516 25.267C17.9381 25.4342 17.6637 25.6711 17.4286 25.9777C17.1934 26.2843 16.9191 26.6745 16.6055 27.1483C16.339 27.4688 16.1509 27.8137 16.0411 28.183C15.9314 28.5523 15.9314 28.8484 16.0411 29.0714C16.1195 29.2943 16.3351 29.5138 16.6878 29.7298C17.0406 29.9458 17.5226 30.2141 18.1341 30.5346C18.6671 30.7994 19.1688 31.0781 19.6391 31.3707C20.1094 31.6634 20.5092 31.9456 20.8384 32.2173C21.1676 32.489 21.3793 32.7155 21.4734 32.8967C21.6615 33.1336 21.7751 33.4053 21.8143 33.7119C21.8535 34.0185 21.8535 34.3146 21.8143 34.6003C21.7751 34.8859 21.7242 35.1194 21.6615 35.3005C21.5517 35.5235 21.3832 35.7604 21.1559 36.0112C20.9286 36.2621 20.7208 36.3805 20.5327 36.3666C20.3603 36.4084 20.2309 36.4572 20.1447 36.5129C20.0585 36.5687 19.9605 36.6174 19.8507 36.6592C19.741 36.715 19.4823 36.7812 19.0747 36.8578C18.6671 36.9345 18.2203 36.9972 17.7343 37.0459C17.2483 37.0947 16.825 37.1121 16.4644 37.0982ZM26.3413 35.7606C26.1689 35.7327 25.9807 35.6386 25.7769 35.4784C25.5731 35.3181 25.3889 35.137 25.2243 34.9349C25.0597 34.7328 24.9539 34.5621 24.9068 34.4228C24.9068 34.3949 24.8872 34.3601 24.848 34.3183L24.7892 34.2556C24.7265 34.2137 24.6913 34.0291 24.6834 33.7016C24.6756 33.3741 24.6952 33.0083 24.7422 32.6042C24.7892 32.2001 24.8441 31.8796 24.9068 31.6426C24.9852 31.4197 25.1028 31.1166 25.2596 30.7334C25.4163 30.3501 25.5496 30.0052 25.6593 29.6986L26.2943 28.4863L25.3536 28.2563C25.2439 28.2285 25.1537 28.1727 25.0832 28.0891C25.0126 28.0055 24.9774 27.9358 24.9774 27.8801C24.9774 27.7686 25.0479 27.6083 25.189 27.3993C25.3301 27.1903 25.432 27.0857 25.4947 27.0857C25.5731 27.0997 25.7181 27.1066 25.9298 27.1066C26.1414 27.1066 26.3491 27.0997 26.553 27.0857C26.7568 27.0718 26.8822 27.0579 26.9292 27.0439C26.9919 27.0161 27.0546 26.9777 27.1173 26.929C27.1801 26.8802 27.2271 26.807 27.2584 26.7095C27.3368 26.5562 27.4074 26.4377 27.4701 26.3541C27.5328 26.2705 27.619 26.1451 27.7288 25.9779C27.8385 25.7967 27.9286 25.6434 27.9992 25.518C28.0697 25.3926 28.1834 25.2184 28.3402 24.9954C28.4186 24.8979 28.5048 24.7794 28.5989 24.6401C28.6929 24.5007 28.8105 24.3823 28.9516 24.2847C29.0927 24.1732 29.3239 24.0931 29.6453 24.0443C29.9667 23.9956 30.245 24.0617 30.4801 24.2429C30.6056 24.3823 30.6761 24.5146 30.6918 24.6401C30.7075 24.7655 30.6448 24.9257 30.5037 25.1208C30.3782 25.3577 30.2332 25.5703 30.0686 25.7584C29.904 25.9465 29.7511 26.159 29.6101 26.3959C29.3592 26.7025 29.3122 26.8767 29.469 26.9185C29.6257 26.9603 30.0647 26.9325 30.7859 26.8349C31.2405 26.7652 31.5697 26.807 31.7735 26.9603C31.9773 27.1136 32.0949 27.3087 32.1263 27.5456C32.1733 27.8801 32.1341 28.0821 32.0087 28.1518C31.8833 28.2215 31.5227 28.2563 30.927 28.2563C30.5507 28.3121 30.2293 28.3434 29.9628 28.3504C29.6963 28.3574 29.5003 28.3608 29.3749 28.3608C29.1711 28.3748 29.0378 28.3817 28.9751 28.3817C28.9124 28.3817 28.8183 28.3957 28.6929 28.4236C28.5675 28.4514 28.4774 28.4967 28.4225 28.5594C28.3676 28.6221 28.3088 28.7092 28.2461 28.8207C28.1834 28.8765 28.0893 29.0228 27.9639 29.2597C27.8385 29.4966 27.6817 29.7544 27.4936 30.0331C27.2741 30.6184 27.0899 31.1793 26.941 31.7158C26.792 32.2523 26.6627 32.7854 26.553 33.3149C26.5059 33.5797 26.5177 33.7713 26.5882 33.8897C26.6588 34.0082 26.8587 34.0814 27.1879 34.1092C27.3603 34.1232 27.6112 34.1197 27.9404 34.0988C28.2696 34.0779 28.544 34.0396 28.7635 33.9838C28.9359 33.9141 29.1162 33.841 29.3043 33.7643C29.4925 33.6877 29.6649 33.6076 29.8217 33.5239C29.9628 33.4543 30.1039 33.3811 30.245 33.3045L30.4566 33.1895C30.535 33.078 30.6487 33.0954 30.7976 33.2417C30.9466 33.3881 31.0524 33.5448 31.1151 33.7121C31.1151 33.8793 31.0759 34.0779 30.9975 34.3078C30.9191 34.5377 30.6291 34.7781 30.1274 35.029C29.4219 35.4192 28.7164 35.6561 28.011 35.7397C27.3055 35.8233 26.7489 35.8303 26.3413 35.7606ZM33.5723 35.489C33.6899 35.5587 33.8506 35.5935 34.0544 35.5935C34.415 35.5656 34.7834 35.5308 35.1597 35.489C35.5359 35.4472 35.8887 35.3287 36.2179 35.1336C36.6726 34.8967 37.088 34.6389 37.4643 34.3602C37.8405 34.0815 38.2246 33.6913 38.6166 33.1896C39.2436 32.3953 39.6277 31.695 39.7688 31.0889C39.9099 30.4827 39.957 29.9705 39.9099 29.5525C39.8629 29.1762 39.7649 28.8696 39.616 28.6327C39.4671 28.3958 39.2123 28.2077 38.8517 28.0683C38.6166 27.8454 38.3148 27.7339 37.9463 27.7339C37.5779 27.7339 37.2213 27.7687 36.8764 27.8384C36.5315 27.9081 36.1905 28.0335 35.8534 28.2147C35.5163 28.3958 35.1518 28.6327 34.7599 28.9254C34.5718 29.0647 34.3641 29.2494 34.1367 29.4793C33.9094 29.7092 33.7017 29.9392 33.5135 30.1691C33.3254 30.399 33.1843 30.5837 33.0903 30.723C32.8551 31.0575 32.6709 31.4094 32.5376 31.7787C32.4044 32.148 32.3534 32.3883 32.3848 32.4998C32.4161 32.6531 32.3848 32.7298 32.2907 32.7298C32.2594 32.7855 32.228 32.8238 32.1966 32.8447C32.1653 32.8656 32.1888 32.9109 32.2672 32.9806L32.279 33.1374C32.2868 33.2419 32.2672 33.3499 32.2202 33.4614C32.1731 33.6983 32.2398 33.977 32.42 34.2975C32.6003 34.618 32.8394 34.9176 33.1373 35.1963C33.3097 35.3218 33.4548 35.4193 33.5723 35.489ZM37.1938 32.1654C37.0449 32.4859 36.798 32.7785 36.4531 33.0433C36.0141 33.4196 35.6418 33.646 35.336 33.7227C35.0303 33.7993 34.8109 33.7505 34.6776 33.5763C34.5443 33.4021 34.5012 33.1409 34.5483 32.7925C34.705 32.1375 34.9833 31.5836 35.3831 31.1307C35.7829 30.6778 36.2179 30.2771 36.6882 29.9287C36.9077 29.7894 37.088 29.6953 37.2291 29.6465C37.3702 29.5978 37.5113 29.6221 37.6524 29.7197C37.7465 29.7476 37.8013 29.8556 37.817 30.0437C37.8327 30.2318 37.8288 30.4234 37.8052 30.6185C37.7817 30.8136 37.7386 30.953 37.6759 31.0366C37.5035 31.4686 37.3428 31.8449 37.1938 32.1654ZM42.8495 35.3005C42.8025 35.3144 42.7045 35.3074 42.5556 35.2796C42.4066 35.2517 42.2577 35.2168 42.1088 35.175C41.9598 35.1332 41.8697 35.0984 41.8383 35.0705C41.7756 35.0148 41.6894 34.9137 41.5796 34.7674C41.4699 34.6211 41.4111 34.4225 41.4033 34.1717C41.3954 33.9208 41.5248 33.6212 41.7913 33.2728C41.8697 33.1335 41.9637 32.9245 42.0735 32.6458C42.1832 32.367 42.2969 32.0709 42.4145 31.7574C42.532 31.4438 42.6418 31.1616 42.7437 30.9108C42.8456 30.6599 42.9201 30.4857 42.9671 30.3882C42.9984 30.1513 42.9867 29.9806 42.9318 29.8761C42.8769 29.7716 42.7398 29.7123 42.5203 29.6984C42.3635 29.6984 42.242 29.6496 42.1558 29.5521C42.0696 29.4545 42.0264 29.2803 42.0264 29.0295C42.0578 28.8344 42.1166 28.6637 42.2028 28.5174C42.289 28.371 42.4105 28.2491 42.5673 28.1516C42.7241 28.0819 42.925 28.0331 43.1699 28.0052C43.4149 27.9774 43.654 27.9704 43.8872 27.9843C44.1204 27.9983 44.284 28.047 44.3781 28.1307C44.4878 28.1864 44.5779 28.3083 44.6485 28.4965C44.719 28.6846 44.7778 28.8762 44.8249 29.0713C44.8719 29.2664 44.9033 29.4127 44.9189 29.5103C45.0757 29.3988 45.2521 29.242 45.448 29.0399C45.644 28.8379 45.8439 28.6463 46.0477 28.4651C46.2985 28.3118 46.5964 28.155 46.9413 27.9948C47.2862 27.8345 47.5371 27.7544 47.6938 27.7544C47.8663 27.7544 48.0779 27.8276 48.3288 27.9739C48.5796 28.1202 48.7364 28.2491 48.7991 28.3606C48.9559 28.5975 49.0695 28.8448 49.1401 29.1027C49.2106 29.3605 49.1597 29.5869 48.9872 29.782C48.8304 29.9632 48.611 30.1408 48.3288 30.315C48.0466 30.4892 47.6938 30.5415 47.2705 30.4718C47.1765 30.4439 47.0785 30.3394 46.9766 30.1583C46.8747 29.9771 46.8183 29.8447 46.8076 29.7611C46.8076 29.7193 46.7397 29.7576 46.604 29.8761C46.4683 29.9945 46.3103 30.1374 46.13 30.3046C45.9497 30.4718 45.7812 30.6251 45.6244 30.7645C45.3579 31.0571 45.0757 31.4543 44.7778 31.9559C44.48 32.4576 44.1272 33.0638 43.7196 33.7745C43.5315 34.1229 43.3747 34.4539 43.2493 34.7674C43.1239 35.081 42.9906 35.2587 42.8495 35.3005ZM50.4804 40.6518C50.598 40.7076 50.6881 40.7285 50.7508 40.7145H51.1153C51.3583 40.7145 51.5504 40.6518 51.6915 40.5264C51.8012 40.401 51.8718 40.2059 51.9031 39.9411C51.9658 39.8018 52.0599 39.6032 52.1853 39.3454C52.3107 39.0876 52.4401 38.8123 52.5733 38.5197C52.7066 38.227 52.832 37.9588 52.9496 37.7149C53.0672 37.471 53.1573 37.2934 53.22 37.1819C53.3141 37.0007 53.4434 36.7394 53.6081 36.398C53.7727 36.0566 53.9451 35.7117 54.1254 35.3633C54.3057 35.0149 54.4429 34.7571 54.5369 34.5899C54.8191 34.1439 55.0621 33.6945 55.2659 33.2416C55.4697 32.7887 55.65 32.3323 55.8068 31.8725C55.8852 31.7052 55.9753 31.5171 56.0772 31.3081C56.1791 31.099 56.2693 30.9074 56.3477 30.7332C56.4261 30.559 56.4496 30.458 56.4182 30.4301C56.4025 30.3975 56.4378 30.2952 56.524 30.1234C56.6103 29.9517 56.7073 29.7544 56.8151 29.5318C56.9228 29.3091 57.0208 29.1071 57.109 28.9256C57.1972 28.7441 57.2413 28.6394 57.2413 28.6116C57.2413 28.5698 57.1707 28.5454 57.0296 28.5384C56.8885 28.5314 56.7475 28.521 56.6064 28.507C56.4653 28.4931 56.3847 28.4792 56.3646 28.4652C56.3646 28.4374 56.2991 28.399 56.168 28.3503C56.0369 28.3015 55.9009 28.2562 55.7598 28.2144C55.6187 28.1726 55.5089 28.1656 55.4305 28.1935C55.3678 28.2074 55.2581 28.3154 55.1013 28.5175C54.9445 28.7196 54.8191 28.9112 54.7251 29.0923C54.631 29.3292 54.5134 29.5592 54.3723 29.7821C54.2312 30.0051 54.0901 30.235 53.949 30.4719C53.5571 30.9458 53.2279 31.329 52.9614 31.6216C52.6948 31.9143 52.4479 32.1651 52.2206 32.3741C51.9933 32.5832 51.7228 32.7992 51.4093 33.0221C51.3309 33.0221 51.3544 32.834 51.4798 32.4578C51.6053 32.0815 51.7464 31.6356 51.9031 31.1199C51.9188 31.0224 51.9345 30.89 51.9502 30.7228C51.9658 30.5556 51.9815 30.3709 51.9972 30.1688C52.0129 29.9668 52.0207 29.7821 52.0207 29.6149C52.0207 29.2247 51.958 28.9251 51.8326 28.7161C51.7072 28.507 51.5817 28.3119 51.4563 28.1308C51.2525 27.9218 51.0526 27.7998 50.8567 27.765C50.6607 27.7301 50.3981 27.7476 50.0689 27.8172C49.8494 27.9148 49.6534 28.0611 49.481 28.2562C49.3085 28.4513 49.3242 28.6325 49.528 28.7997C49.6534 28.8972 49.7553 29.0087 49.8337 29.1341C49.9121 29.2596 49.9552 29.4512 49.963 29.709C49.9709 29.9668 49.9121 30.3326 49.7867 30.8064C49.6142 31.7679 49.5162 32.4856 49.4927 32.9594C49.4692 33.4332 49.4888 33.8234 49.5515 34.13C49.6299 34.3669 49.8102 34.5829 50.0924 34.778C50.3746 34.9731 50.6176 35.0916 50.8214 35.1334C51.0722 35.1473 51.3113 35.0602 51.5386 34.8721C51.766 34.6839 52.0246 34.4261 52.3147 34.0987C52.6047 33.7712 52.9535 33.4193 53.3611 33.043C53.1573 33.4981 52.9339 33.9394 52.6909 34.3668C52.4479 34.7942 52.2284 35.1612 52.0325 35.4678C51.8365 35.7744 51.6993 35.9904 51.6209 36.1158C51.4485 36.4224 51.2956 36.729 51.1624 37.0356C51.0291 37.3421 50.8841 37.6069 50.7273 37.8299C50.4295 38.3873 50.2374 38.8089 50.1512 39.0945C50.0649 39.3802 50.0532 39.6206 50.1159 39.8157C50.0845 40.0387 50.1081 40.2198 50.1865 40.3592C50.2648 40.4985 50.3628 40.5961 50.4804 40.6518ZM60.4866 35.6145C60.1731 35.5866 59.9261 35.5134 59.7459 35.395C59.5656 35.2765 59.4284 35.1267 59.3343 34.9456C59.2089 34.8201 59.1344 34.7226 59.1109 34.6529C59.0874 34.5832 59.0835 34.5205 59.0992 34.4648C59.1775 34.4648 59.2481 34.4613 59.3108 34.4543C59.3735 34.4474 59.4127 34.423 59.4284 34.3812C59.4284 34.3394 59.4558 34.3115 59.5107 34.2976C59.5656 34.2836 59.6244 34.2836 59.6871 34.2976C59.9849 34.3115 60.3494 34.2209 60.7806 34.0258C61.2117 33.8307 61.6859 33.5555 62.2033 33.2001C62.7206 32.8448 63.238 32.4581 63.7554 32.04C64.163 31.5662 64.4491 31.2178 64.6137 30.9948C64.7783 30.7719 64.8645 30.6012 64.8724 30.4827C64.8802 30.3643 64.8449 30.2423 64.7665 30.1169C64.7038 30.0054 64.5549 29.9497 64.3197 29.9497C64.0846 29.9497 63.724 30.089 63.238 30.3678C62.5639 30.744 62.023 31.0924 61.6154 31.4129C61.2078 31.7334 60.8315 32.0958 60.4866 32.4999C60.3612 32.6392 60.2232 32.7882 60.0727 32.9467C59.9222 33.1052 59.7967 33.2411 59.6964 33.3543L59.546 33.5241C59.546 33.5799 59.4558 33.6496 59.2755 33.7332C59.0952 33.8168 58.9424 33.8586 58.817 33.8586C58.7543 33.8307 58.672 33.7785 58.57 33.7018C58.4681 33.6252 58.4015 33.5241 58.3702 33.3987C58.2291 33.3012 58.1115 33.2141 58.0174 33.1374C57.9234 33.0608 57.8763 32.9319 57.8763 32.7507C57.8763 32.6392 57.8959 32.4999 57.9351 32.3327C57.9743 32.1654 58.0331 31.9494 58.1115 31.6847C58.2011 31.318 58.3019 30.9371 58.4139 30.5422C58.5258 30.1472 58.6334 29.807 58.7367 29.5217C58.8399 29.2363 58.9137 29.0794 58.9581 29.0508L59.0521 28.8627C59.1148 28.7373 59.1462 28.591 59.1462 28.4238C59.1776 28.2565 59.2285 28.1102 59.299 27.9848C59.3696 27.8594 59.4049 27.7688 59.4049 27.713C59.4676 27.6712 59.5616 27.504 59.6871 27.2114C59.8125 26.9187 59.9693 26.5355 60.1574 26.0617C60.1574 26.0199 60.2123 25.884 60.322 25.6541C60.4317 25.4241 60.565 25.1524 60.7218 24.8388C60.8786 24.5253 61.0392 24.1978 61.2039 23.8564C61.3685 23.515 61.5056 23.2119 61.6154 22.9471C61.8035 22.7102 61.9642 22.4698 62.0975 22.2259C62.2307 21.9821 62.3522 21.8392 62.462 21.7974C62.5404 21.7835 62.6775 21.8114 62.8735 21.881C63.0695 21.9507 63.2694 22.0413 63.4732 22.1528C63.677 22.2643 63.8181 22.3758 63.8965 22.4872C63.9435 22.5569 63.9709 22.6266 63.9788 22.6963C63.9866 22.7659 63.9513 22.8809 63.8729 23.0412C63.7945 23.2014 63.6613 23.4592 63.4732 23.8146C63.285 24.1699 63.0185 24.6681 62.6736 25.3092C62.2346 26.1453 61.8937 26.8421 61.6507 27.3995C61.4077 27.9569 61.2117 28.4377 61.0628 28.8418C60.9138 29.2459 60.761 29.6292 60.6042 29.9915L60.4866 30.4514L61.098 29.8452C61.2548 29.7058 61.4194 29.5734 61.5919 29.448C61.7643 29.3226 61.9524 29.1972 62.1563 29.0718C62.2817 28.9881 62.4502 28.901 62.6619 28.8105C62.8735 28.7199 63.0812 28.6398 63.285 28.5701C63.4888 28.5004 63.6378 28.4586 63.7318 28.4447C63.7789 28.4307 63.9396 28.3994 64.2139 28.3506C64.4883 28.3018 64.7587 28.2774 65.0252 28.2774C65.3701 28.2774 65.6719 28.3854 65.9306 28.6014C66.1893 28.8174 66.4205 29.0787 66.6243 29.3853C66.7968 29.6779 66.8595 30.0507 66.8125 30.5036C66.7654 30.9565 66.6322 31.3432 66.4127 31.6638C66.3343 31.7195 66.2559 31.7927 66.1775 31.8832C66.0991 31.9738 66.0599 32.047 66.0599 32.1027C66.0443 32.2003 65.9032 32.3988 65.6366 32.6985C65.3701 32.9981 65.1036 33.2803 64.8371 33.545C64.5549 33.8098 64.21 34.0711 63.8024 34.3289C63.3948 34.5867 62.9911 34.8167 62.5913 35.0187C62.1915 35.2208 61.8506 35.3636 61.5684 35.4472C61.4429 35.4612 61.2626 35.4856 61.0275 35.5204C60.7923 35.5552 60.612 35.5866 60.4866 35.6145ZM67.9881 34.8721C68.1762 35.0324 68.3487 35.1543 68.5055 35.2379C68.6936 35.3215 68.8621 35.3215 69.0111 35.2379C69.16 35.1543 69.2815 35.0289 69.3756 34.8617C69.4696 34.6944 69.5245 34.5411 69.5402 34.4018C69.6656 34.1788 69.7479 33.9175 69.7871 33.6179C69.8263 33.3183 69.8929 33.0152 69.987 32.7086C69.987 32.6529 70.0222 32.517 70.0928 32.301C70.1633 32.085 70.2457 31.8516 70.3397 31.6007L70.4808 30.89C70.5278 30.6531 70.6062 30.458 70.716 30.3047C70.9198 29.9842 71.0766 29.6463 71.1863 29.2909C71.296 28.9356 71.4058 28.5907 71.5155 28.2562C71.6253 27.9078 71.7546 27.5804 71.9035 27.2738C72.0525 26.9672 72.1818 26.6537 72.2916 26.3331C72.3229 26.2356 72.3817 26.1102 72.4679 25.9569C72.5542 25.8036 72.6286 25.6433 72.6913 25.4761C72.7697 25.3228 72.8324 25.1521 72.8795 24.964C72.9265 24.7758 72.9814 24.5912 73.0441 24.41C73.1538 24.2289 73.2361 24.086 73.291 23.9815C73.3459 23.877 73.4046 23.7969 73.4674 23.7411C73.5301 23.6575 73.5732 23.5669 73.5967 23.4694C73.6202 23.3718 73.632 23.2952 73.632 23.2395C73.6477 23.1558 73.6057 23.041 73.5061 22.8949C73.4066 22.7488 73.3007 22.6164 73.1887 22.4977C73.0766 22.3791 72.997 22.3267 72.95 22.3406C72.8873 22.2709 72.7736 22.2396 72.609 22.2466C72.4444 22.2535 72.2876 22.2779 72.1387 22.3197C71.9898 22.3615 71.9075 22.4103 71.8918 22.466C71.8291 22.5497 71.7703 22.6367 71.7154 22.7273C71.6605 22.8179 71.5861 22.9259 71.492 23.0513C71.2725 23.3718 71.1118 23.7307 71.0099 24.1278C70.908 24.525 70.7865 24.8978 70.6454 25.2462C70.3946 25.8593 70.1869 26.3645 70.0222 26.7617C69.8576 27.1588 69.6734 27.6152 69.4696 28.1308C69.3285 28.6882 69.1639 29.2282 68.9758 29.7508C68.7877 30.2734 68.6074 30.7995 68.4349 31.329C68.2781 31.552 68.1723 31.7924 68.1174 32.0502C68.0626 32.308 68.0195 32.5623 67.9881 32.8131C67.9254 33.0361 67.8627 33.3044 67.8 33.6179C67.7373 33.9315 67.7059 34.1927 67.7059 34.4018C67.7059 34.5551 67.8 34.7118 67.9881 34.8721ZM74.314 35.5724C73.9848 35.6281 73.7379 35.6107 73.5733 35.5201C73.4087 35.4295 73.2401 35.3145 73.0677 35.1752C72.8168 35.0637 72.5895 34.9069 72.3857 34.7049C72.1819 34.5028 72.0251 34.2903 71.9154 34.0673C71.8056 33.8444 71.7586 33.6702 71.7743 33.5447C71.8213 33.057 71.9507 32.5275 72.1623 31.9561C72.3739 31.3847 72.6483 30.8273 72.9854 30.2838C73.3224 29.7404 73.7065 29.2561 74.1376 28.8311C74.5688 28.406 75.0352 28.096 75.5369 27.9009C75.8504 27.7894 76.1875 27.7476 76.5481 27.7755C76.9086 27.8033 77.1516 27.9357 77.2771 28.1726C77.5122 28.5767 77.4574 28.8345 77.1124 28.946C77.0654 28.946 77.0105 28.9635 76.9478 28.9983C76.8851 29.0331 76.8538 29.0784 76.8538 29.1342C76.9165 29.162 77.0889 29.1655 77.3711 29.1446C77.6533 29.1237 77.9394 29.0819 78.2295 29.0192C78.5195 28.9565 78.7115 28.8903 78.8056 28.8206C78.8997 28.7788 78.9702 28.7579 79.0173 28.7579C79.0643 28.7579 79.1819 28.7718 79.37 28.7997C79.6365 28.8694 79.7698 28.953 79.7698 29.0505C79.7698 29.1063 79.7933 29.1934 79.8403 29.3118C79.8874 29.4303 79.9422 29.4895 80.0049 29.4895C80.1147 29.5035 80.1421 29.601 80.0872 29.7822C80.0324 29.9633 79.8482 30.1515 79.5346 30.3465C79.2367 30.5138 79.0525 30.6218 78.982 30.6705C78.9114 30.7193 78.8997 30.8204 78.9467 30.9736C79.0721 31.2384 79.0643 31.5589 78.9232 31.9352C78.7821 32.3115 78.5469 32.7016 78.2177 33.1058C77.8885 33.5099 77.5005 33.8896 77.0536 34.245C76.6068 34.6004 76.1444 34.9 75.6662 35.1438C75.188 35.3877 74.7373 35.5306 74.314 35.5724ZM74.3846 33.8165C74.4473 33.8165 74.557 33.7851 74.7138 33.7224C74.8706 33.6597 74.996 33.6075 75.09 33.5656C75.1528 33.5099 75.2351 33.4437 75.337 33.3671C75.4389 33.2904 75.5212 33.2451 75.5839 33.2312C75.6466 33.2312 75.6858 33.2068 75.7015 33.158C75.7172 33.1093 75.772 33.0047 75.8661 32.8445C75.9602 32.6842 76.1483 32.4438 76.4305 32.1233C76.744 31.8167 76.9478 31.5694 77.0419 31.3813C77.136 31.1931 77.1438 30.9876 77.0654 30.7646C77.0497 30.7089 77.0066 30.674 76.9361 30.6601C76.8655 30.6462 76.7754 30.6113 76.6656 30.5556C76.5089 30.5556 76.403 30.5869 76.3482 30.6496C76.2933 30.7124 76.1796 30.681 76.0072 30.5556L75.6309 30.1375L75.2311 30.4929C74.9803 30.7158 74.7569 30.9945 74.5609 31.329C74.365 31.6635 74.2121 32.0049 74.1024 32.3533C73.9926 32.7016 73.9221 33.0082 73.8907 33.273C73.8751 33.482 73.9142 33.6214 74.0083 33.6911C74.1024 33.7607 74.2278 33.8026 74.3846 33.8165ZM85.1315 35.6874C85.2569 35.778 85.351 35.8511 85.4137 35.9069C85.5705 35.9766 85.7547 36.0044 85.9663 35.9905C86.178 35.9766 86.3739 35.9452 86.5542 35.8964C86.7345 35.8477 86.8403 35.8093 86.8717 35.7815C86.903 35.7257 86.9305 35.6421 86.954 35.5306C86.9775 35.4191 86.9853 35.3007 86.9775 35.1753C86.9697 35.0499 86.9422 34.9314 86.8952 34.8199C86.8482 34.7084 86.7698 34.6318 86.66 34.59C86.566 34.5342 86.4327 34.4297 86.2603 34.2764C86.0878 34.1231 85.9114 33.9559 85.7311 33.7748C85.5509 33.5936 85.398 33.4264 85.2726 33.2731C85.1472 33.1198 85.0845 33.0153 85.0845 32.9595C85.0845 32.9038 85.1276 32.8689 85.2138 32.855C85.3 32.8411 85.3745 32.8062 85.4372 32.7505C85.5626 32.7087 85.6606 32.6808 85.7311 32.6669C85.8017 32.653 85.9232 32.5693 86.0957 32.416C86.2681 32.3046 86.3739 32.2453 86.4131 32.2384C86.4523 32.2314 86.5033 32.2279 86.566 32.2279V32.1757V32.1234C86.566 32.0816 86.6052 32.0189 86.6836 31.9353C86.7619 31.8517 86.8325 31.782 86.8952 31.7262C87.0206 31.6705 87.1108 31.6008 87.1656 31.5172C87.2205 31.4336 87.2479 31.3639 87.2479 31.3082L87.2832 31.2768C87.3067 31.2559 87.3459 31.2315 87.4008 31.2037C87.4557 31.1758 87.5223 31.1479 87.6007 31.12C87.7575 31.0086 87.926 30.796 88.1063 30.4825C88.2866 30.169 88.4434 29.8484 88.5766 29.521C88.7099 29.1935 88.7765 28.967 88.7765 28.8416C88.7138 28.5768 88.6119 28.312 88.4708 28.0473C88.3297 27.7825 88.1729 27.6013 88.0005 27.5038C87.8907 27.462 87.781 27.4341 87.6712 27.4202C87.5615 27.4062 87.4439 27.4028 87.3185 27.4097C87.1931 27.4167 87.052 27.4411 86.8952 27.4829C86.613 27.5247 86.2642 27.6571 85.8487 27.88C85.4333 28.103 85.0453 28.3399 84.6847 28.5908C84.622 28.6186 84.5554 28.657 84.4848 28.7057C84.4143 28.7545 84.3555 28.7893 84.3084 28.8102C84.2614 28.8311 84.2379 28.8277 84.2379 28.7998C84.2849 28.5768 84.4143 28.2807 84.6259 27.9114C84.8375 27.5421 85.0061 27.2251 85.1315 26.9603C85.1785 26.8488 85.253 26.706 85.3549 26.5318C85.4568 26.3576 85.5313 26.1939 85.5783 26.0406C85.641 25.9291 85.6959 25.8106 85.7429 25.6852C85.7899 25.5598 85.8135 25.4762 85.8135 25.4344C85.8605 25.4344 85.9075 25.41 85.9546 25.3612C86.0016 25.3124 86.0447 25.2567 86.0839 25.194C86.1231 25.1313 86.1505 25.072 86.1662 25.0163C86.3387 24.7376 86.4641 24.5425 86.5425 24.431L86.7776 24.0966C86.856 23.9851 86.9579 23.8039 87.0833 23.5531C87.3185 23.2047 87.4635 22.9434 87.5184 22.7692C87.5732 22.595 87.5693 22.4557 87.5066 22.3511C87.4439 22.2466 87.3498 22.1386 87.2244 22.0271C87.146 21.9435 87.0167 21.8913 86.8364 21.8704C86.6561 21.8495 86.4798 21.853 86.3073 21.8808C86.1348 21.9087 86.0094 21.9575 85.931 22.0271C85.8527 22.0968 85.7586 22.2083 85.6488 22.3616C85.5391 22.5149 85.3823 22.7518 85.1785 23.0723C84.9747 23.3928 84.7004 23.8388 84.3555 24.4101L84.0027 25.0059C83.9243 25.1382 83.8538 25.2637 83.7911 25.3821C83.7284 25.5006 83.6265 25.6852 83.4854 25.936C83.1405 26.6468 82.8269 27.2913 82.5447 27.8696C82.2625 28.4479 82.0038 29.0785 81.7687 29.7613L81.5335 30.3362C81.4395 30.5661 81.3611 30.7856 81.2984 30.9946C80.8437 32.0119 80.5067 32.8481 80.2872 33.503C80.0677 34.158 79.9893 34.583 80.052 34.7781C80.052 35.0429 80.1853 35.245 80.4518 35.3843C80.7183 35.5237 80.9378 35.5933 81.1102 35.5933C81.1729 35.5933 81.2357 35.5899 81.2984 35.5829C81.3611 35.5759 81.4199 35.5585 81.4747 35.5306C81.5296 35.5028 81.5884 35.461 81.6511 35.4052C81.7138 35.3495 81.7765 35.2728 81.8392 35.1753C81.9176 34.9662 82.0117 34.698 82.1214 34.3705C82.2312 34.043 82.3331 33.7504 82.4271 33.4926L82.5682 33.1059C82.631 33.1059 82.7132 33.1616 82.8152 33.2731C82.9171 33.3846 83.0542 33.5448 83.2267 33.7539C83.3521 33.8514 83.4618 33.9524 83.5559 34.057C83.65 34.1615 83.7362 34.259 83.8146 34.3496C83.893 34.4402 83.9478 34.5203 83.9792 34.59C84.0262 34.6179 84.1125 34.691 84.2379 34.8095L84.6141 35.1648C84.7396 35.2833 84.8179 35.3634 84.8493 35.4052C84.912 35.5028 85.0061 35.5968 85.1315 35.6874ZM84.4848 31.6008C84.2732 31.7541 84.1281 31.8586 84.0498 31.9144C83.893 31.984 83.7362 31.9875 83.5794 31.9248C83.4227 31.8621 83.2972 31.768 83.2032 31.6426C83.1091 31.5172 83.0778 31.4057 83.1091 31.3082C83.2659 31.0713 83.4854 30.8518 83.7676 30.6497C84.0498 30.4477 84.3515 30.2595 84.6729 30.0853C84.9943 29.9111 85.2883 29.7544 85.5548 29.615C85.8997 29.4617 86.1819 29.3224 86.4014 29.197C86.6208 29.0715 86.7384 29.0367 86.7541 29.0924C86.8325 29.2318 86.809 29.413 86.6836 29.6359C86.5581 29.8589 86.4406 30.0191 86.3308 30.1167C86.2367 30.2142 86.0839 30.3536 85.8722 30.5348C85.6606 30.7159 85.4294 30.9006 85.1785 31.0887C84.9277 31.2768 84.6964 31.4475 84.4848 31.6008ZM96.7485 35.7606C96.5761 35.7327 96.388 35.6386 96.1841 35.4784C95.9803 35.3181 95.7961 35.137 95.6315 34.9349C95.4669 34.7328 95.3611 34.5621 95.314 34.4228C95.314 34.3949 95.2945 34.3601 95.2553 34.3183L95.1965 34.2556C95.1338 34.2137 95.0985 34.0291 95.0906 33.7016C95.0828 33.3741 95.1024 33.0083 95.1494 32.6042C95.1965 32.2001 95.2513 31.8796 95.314 31.6426C95.3924 31.4197 95.51 31.1166 95.6668 30.7334C95.8236 30.3501 95.9568 30.0052 96.0666 29.6986L96.7015 28.4863L95.7609 28.2563C95.6511 28.2285 95.561 28.1727 95.4904 28.0891C95.4199 28.0055 95.3846 27.9358 95.3846 27.8801C95.3846 27.7686 95.4551 27.6083 95.5962 27.3993C95.7373 27.1903 95.8392 27.0857 95.902 27.0857C95.9803 27.0997 96.1254 27.1066 96.337 27.1066C96.5486 27.1066 96.7564 27.0997 96.9602 27.0857C97.164 27.0718 97.2894 27.0579 97.3364 27.0439C97.3991 27.0161 97.4619 26.9777 97.5246 26.929C97.5873 26.8802 97.6343 26.807 97.6657 26.7095C97.744 26.5562 97.8146 26.4377 97.8773 26.3541C97.94 26.2705 98.0262 26.1451 98.136 25.9779C98.2457 25.7967 98.3359 25.6434 98.4064 25.518C98.477 25.3926 98.5906 25.2184 98.7474 24.9954C98.8258 24.8979 98.912 24.7794 99.0061 24.6401C99.1001 24.5007 99.2177 24.3823 99.3588 24.2847C99.4999 24.1732 99.7312 24.0931 100.053 24.0443C100.374 23.9956 100.652 24.0617 100.887 24.2429C101.013 24.3823 101.083 24.5146 101.099 24.6401C101.115 24.7655 101.052 24.9257 100.911 25.1208C100.785 25.3577 100.64 25.5703 100.476 25.7584C100.311 25.9465 100.158 26.159 100.017 26.3959C99.7664 26.7025 99.7194 26.8767 99.8762 26.9185C100.033 26.9603 100.472 26.9325 101.193 26.8349C101.648 26.7652 101.977 26.807 102.181 26.9603C102.385 27.1136 102.502 27.3087 102.534 27.5456C102.581 27.8801 102.541 28.0821 102.416 28.1518C102.29 28.2215 101.93 28.2563 101.334 28.2563C100.958 28.3121 100.637 28.3434 100.37 28.3504C100.104 28.3574 99.9075 28.3608 99.7821 28.3608C99.5783 28.3748 99.445 28.3817 99.3823 28.3817C99.3196 28.3817 99.2256 28.3957 99.1001 28.4236C98.9747 28.4514 98.8846 28.4967 98.8297 28.5594C98.7748 28.6221 98.716 28.7092 98.6533 28.8207C98.5906 28.8765 98.4966 29.0228 98.3711 29.2597C98.2457 29.4966 98.089 29.7544 97.9008 30.0331C97.6813 30.6184 97.4971 31.1793 97.3482 31.7158C97.1993 32.2523 97.0699 32.7854 96.9602 33.3149C96.9131 33.5797 96.9249 33.7713 96.9955 33.8897C97.066 34.0082 97.2659 34.0814 97.5951 34.1092C97.7676 34.1232 98.0184 34.1197 98.3476 34.0988C98.6769 34.0779 98.9512 34.0396 99.1707 33.9838C99.3431 33.9141 99.5234 33.841 99.7116 33.7643C99.8997 33.6877 100.072 33.6076 100.229 33.5239C100.37 33.4543 100.511 33.3811 100.652 33.3045L100.864 33.1895C100.942 33.078 101.056 33.0954 101.205 33.2417C101.354 33.3881 101.46 33.5448 101.522 33.7121C101.522 33.8793 101.483 34.0779 101.405 34.3078C101.326 34.5377 101.036 34.7781 100.535 35.029C99.8291 35.4192 99.1237 35.6561 98.4182 35.7397C97.7127 35.8233 97.1562 35.8303 96.7485 35.7606ZM103.168 34.4645C103.403 34.9662 103.827 35.3285 104.438 35.5515C104.814 35.6769 105.23 35.7466 105.685 35.7605C106.139 35.7745 106.602 35.6699 107.072 35.447C107.229 35.3634 107.429 35.2275 107.672 35.0394C107.915 34.8512 108.142 34.6631 108.354 34.475C108.565 34.2868 108.695 34.144 108.742 34.0465C108.992 33.6423 109.122 33.3357 109.13 33.1267C109.138 32.9177 109.055 32.7644 108.883 32.6668C108.585 32.5972 108.33 32.5797 108.118 32.6146C107.907 32.6494 107.77 32.7156 107.707 32.8132C107.456 32.9943 107.178 33.2347 106.872 33.5343C106.566 33.8339 106.265 33.9977 105.967 34.0255C105.669 34.0534 105.465 34.029 105.355 33.9524C105.246 33.8757 105.136 33.7538 105.026 33.5866C104.995 33.5308 104.967 33.4472 104.944 33.3357C104.92 33.2243 104.916 33.0919 104.932 32.9386C104.979 32.5484 105.038 32.308 105.108 32.2174C105.179 32.1268 105.269 32.1094 105.379 32.1652C105.473 32.207 105.641 32.2383 105.884 32.2592C106.127 32.2801 106.39 32.2801 106.672 32.2592C106.954 32.2383 107.197 32.207 107.401 32.1652C107.636 32.0815 107.923 31.9248 108.26 31.6948C108.597 31.4649 108.906 31.2245 109.188 30.9737C109.471 30.7228 109.635 30.5277 109.682 30.3884C109.792 30.1933 109.855 29.9564 109.87 29.6777C109.886 29.399 109.859 29.1307 109.788 28.8729C109.718 28.6151 109.58 28.4235 109.377 28.2981C109.204 28.1308 108.961 27.9497 108.648 27.7546C108.334 27.5595 108.036 27.455 107.754 27.441C107.629 27.4271 107.44 27.4375 107.19 27.4724C106.939 27.5072 106.7 27.5525 106.472 27.6083C106.245 27.664 106.092 27.7058 106.014 27.7337C105.841 27.8173 105.634 27.9392 105.391 28.0995C105.148 28.2597 104.909 28.4374 104.673 28.6325C104.438 28.8276 104.242 29.0366 104.085 29.2596C103.929 29.5383 103.784 29.7683 103.65 29.9494C103.517 30.1306 103.419 30.1724 103.356 30.0748C103.356 30.0191 103.29 29.9564 103.157 29.8867C103.023 29.817 102.925 29.7822 102.863 29.7822C102.8 29.7543 102.71 29.7683 102.592 29.824C102.475 29.8797 102.361 29.9285 102.251 29.9703C102.204 29.9843 102.149 30.0644 102.087 30.2107C102.024 30.357 102 30.479 102.016 30.5765C102 30.6462 102.079 30.7472 102.251 30.8796C102.424 31.012 102.533 31.1061 102.58 31.1618C102.753 31.3012 102.87 31.444 102.933 31.5903C102.996 31.7366 103.012 32.0258 102.98 32.4578C102.87 33.2939 102.933 33.9628 103.168 34.4645ZM106.778 30.681C106.613 30.7368 106.414 30.7925 106.178 30.8483C106.1 30.8483 105.955 30.8413 105.743 30.8274C105.532 30.8134 105.442 30.7786 105.473 30.7228C105.41 30.695 105.43 30.6148 105.532 30.4824C105.634 30.3501 105.775 30.2037 105.955 30.0435C106.135 29.8832 106.323 29.7369 106.519 29.6045C106.715 29.4721 106.868 29.385 106.978 29.3432C107.15 29.2317 107.311 29.1586 107.46 29.1237C107.609 29.0889 107.746 29.1272 107.872 29.2387C107.903 29.2666 107.915 29.3363 107.907 29.4477C107.899 29.5592 107.864 29.6916 107.801 29.8449C107.597 30.0957 107.417 30.2839 107.26 30.4093C107.103 30.5347 106.943 30.6253 106.778 30.681ZM111.281 35.3005C111.219 35.189 111.082 35.0775 110.87 34.966C110.658 34.8545 110.552 34.7709 110.552 34.7152C110.552 34.6594 110.517 34.5723 110.447 34.4539C110.376 34.3354 110.309 34.2483 110.247 34.1926C110.168 34.109 110.192 33.9034 110.317 33.5759C110.443 33.2485 110.631 32.8478 110.882 32.374C111.133 31.9002 111.407 31.4194 111.705 30.9317C111.83 30.8202 111.956 30.6739 112.081 30.4927C112.206 30.3116 112.3 30.1931 112.363 30.1374C112.363 30.0816 112.387 30.0294 112.434 29.9806C112.481 29.9318 112.536 29.9074 112.598 29.9074L112.786 29.573C112.818 29.5172 112.914 29.4057 113.076 29.2385C113.237 29.0713 113.437 28.8867 113.675 28.6846C113.914 28.4825 114.153 28.2903 114.394 28.1078C114.635 27.9253 114.836 27.7936 114.997 27.7126C115.326 27.5175 115.667 27.4269 116.02 27.4408C116.373 27.4548 116.674 27.5523 116.925 27.7335C116.972 27.7753 117.078 27.8589 117.243 27.9843C117.407 28.1097 117.596 28.2491 117.807 28.4024C118.019 28.5557 118.203 28.695 118.36 28.8205L119.23 29.5103L118.82 30.5554C118.623 31.1128 118.573 31.6006 118.671 32.0187C118.769 32.4367 118.916 32.799 119.112 33.1056C119.191 33.2589 119.297 33.3774 119.43 33.461C119.563 33.5446 119.739 33.6003 119.959 33.6282C120.084 33.6421 120.202 33.6839 120.312 33.7536C120.421 33.8233 120.476 33.9348 120.476 34.0881C120.476 34.4225 120.41 34.6629 120.276 34.8092C120.143 34.9556 119.998 35.0427 119.841 35.0705C119.324 35.1263 118.83 35.0775 118.36 34.9242C117.889 34.7709 117.466 34.3737 117.09 33.7327C117.027 33.6491 116.945 33.4923 116.843 33.2624C116.741 33.0325 116.682 32.8827 116.667 32.813C116.604 32.8827 116.522 32.9697 116.42 33.0743C116.318 33.1788 116.22 33.2728 116.126 33.3565C115.013 34.3598 114.058 35.0113 113.263 35.3109C112.467 35.6105 111.807 35.607 111.281 35.3005ZM112.575 33.5655C112.685 33.5794 112.857 33.5272 113.092 33.4087C113.327 33.2903 113.641 33.0917 114.033 32.813C114.566 32.4088 115.005 32.0744 115.35 31.8096C115.695 31.5448 116.032 31.2034 116.361 30.7854L116.878 30.0328C116.722 29.7123 116.58 29.5033 116.455 29.4057C116.33 29.3082 116.204 29.2594 116.079 29.2594C115.875 29.2594 115.632 29.3744 115.35 29.6043C115.068 29.8343 114.75 30.1687 114.397 30.6077C114.045 31.0467 113.649 31.5936 113.21 32.2486C113.006 32.5552 112.849 32.8513 112.739 33.137L112.575 33.5655ZM121.558 34.757C121.715 34.8406 121.817 34.9103 121.864 34.9661C122.036 35.1612 122.236 35.196 122.463 35.0706C122.691 34.9452 123.032 34.5968 123.486 34.0254C123.847 33.5934 124.172 33.2172 124.462 32.8966C124.752 32.5761 125.011 32.2974 125.238 32.0605C125.466 31.8236 125.65 31.6285 125.791 31.4752C126.104 31.2383 126.379 31.0397 126.614 30.8795C126.849 30.7192 126.967 30.667 126.967 30.7227L126.767 31.2975C126.634 31.6808 126.481 32.1093 126.308 32.5831C126.151 33.0151 126.053 33.3286 126.014 33.5237C125.975 33.7188 125.975 33.8477 126.014 33.9104C126.053 33.9732 126.104 34.015 126.167 34.0359C126.23 34.0568 126.285 34.109 126.332 34.1926C126.457 34.3738 126.649 34.5062 126.908 34.5898C127.167 34.6734 127.351 34.6595 127.461 34.548C127.508 34.5201 127.586 34.3947 127.696 34.1717C127.805 33.9488 127.931 33.7606 128.072 33.6073C128.26 33.3426 128.476 33.0778 128.719 32.813C128.962 32.5482 129.201 32.3009 129.436 32.071C129.671 31.841 129.875 31.6564 130.047 31.517C130.22 31.3777 130.337 31.308 130.4 31.308C130.447 31.308 130.471 31.3881 130.471 31.5484V31.8515C130.424 31.9351 130.392 32.0814 130.377 32.2904C130.361 32.4995 130.322 32.7294 130.259 32.9802C130.196 33.3286 130.224 33.6213 130.341 33.8582C130.459 34.0951 130.549 34.2902 130.612 34.4435C130.706 34.7501 130.913 34.9452 131.235 35.0288C131.556 35.1124 131.795 35.1333 131.952 35.0915C132.062 35.0915 132.16 35.0741 132.246 35.0392C132.332 35.0044 132.407 34.987 132.469 34.987C132.595 34.987 132.709 34.9452 132.81 34.8615C132.912 34.7779 133.018 34.6873 133.128 34.5898C133.206 34.548 133.316 34.4713 133.457 34.3599C133.598 34.2484 133.692 34.1926 133.739 34.1926C133.818 34.1926 133.92 34.1021 134.045 33.9209C134.17 33.7397 134.28 33.5516 134.374 33.3565C134.468 33.1614 134.5 33.036 134.468 32.9802C134.421 32.813 134.308 32.6632 134.127 32.5308C133.947 32.3984 133.739 32.4298 133.504 32.6249C133.316 32.7782 133.148 32.9001 132.999 32.9907C132.85 33.0813 132.665 33.1475 132.446 33.1893C132.336 33.1893 132.273 33.1579 132.258 33.0952C132.242 33.0325 132.234 32.9106 132.234 32.7294C132.234 32.6179 132.238 32.4995 132.246 32.3741C132.254 32.2486 132.289 32.1302 132.352 32.0187C132.383 31.7957 132.407 31.6395 132.422 31.5498C132.438 31.4602 132.458 31.3732 132.481 31.2886C132.505 31.204 132.532 31.0572 132.564 30.8481C132.564 30.5973 132.516 30.4092 132.422 30.2837C132.328 30.1583 132.226 30.012 132.117 29.8448C131.96 29.5521 131.693 29.3744 131.317 29.3117C130.941 29.249 130.62 29.2664 130.353 29.364C130.322 29.4197 130.259 29.472 130.165 29.5208C130.071 29.5695 129.985 29.6218 129.906 29.6775C129.906 29.7193 129.891 29.7437 129.859 29.7507L129.812 29.7612L129.718 29.7821C129.655 29.796 129.608 29.8517 129.577 29.9493C129.499 30.005 129.408 30.0747 129.307 30.1583C129.205 30.2419 129.107 30.3395 129.013 30.451L128.166 31.3707L128.66 30.2419C128.66 29.7542 128.546 29.357 128.319 29.0504C128.092 28.7439 127.798 28.6393 127.437 28.7369C127.296 28.7369 127.139 28.7926 126.967 28.9041C126.716 29.0853 126.539 29.2072 126.438 29.2699C126.336 29.3326 126.253 29.364 126.191 29.364L126.108 29.4267C126.053 29.4685 126.003 29.5103 125.956 29.5521C125.956 29.6497 125.936 29.7054 125.897 29.7193L125.838 29.7403C125.791 29.7403 125.697 29.796 125.556 29.9075C125.415 30.019 125.321 30.1026 125.274 30.1583C125.195 30.2559 125.129 30.3046 125.074 30.3046C125.019 30.3046 125.031 30.235 125.109 30.0956L125.344 29.7821C125.564 29.3919 125.673 29.0644 125.673 28.7996C125.673 28.5348 125.564 28.284 125.344 28.0471C125.203 27.7544 124.991 27.5559 124.709 27.4513C124.427 27.3468 124.082 27.3503 123.674 27.4618C123.612 27.4757 123.424 27.5384 123.11 27.6499C122.796 27.7614 122.554 27.8659 122.381 27.9635C122.318 28.0053 122.193 28.0784 122.005 28.183C121.817 28.2875 121.66 28.3885 121.534 28.4861C121.425 28.5697 121.362 28.6812 121.346 28.8205C121.331 28.9599 121.354 29.1062 121.417 29.2595C121.574 29.5939 121.734 29.7612 121.899 29.7612C122.064 29.7612 122.326 29.6497 122.687 29.4267C122.781 29.371 122.887 29.3257 123.004 29.2908C123.122 29.256 123.212 29.2316 123.275 29.2177L123.392 29.1759C123.471 29.148 123.541 29.1689 123.604 29.2386C123.635 29.3779 123.62 29.5486 123.557 29.7507C123.494 29.9528 123.4 30.1513 123.275 30.3464C123.228 30.3883 123.161 30.4753 123.075 30.6077L122.945 30.8063C122.977 30.8063 122.981 30.8446 122.957 30.9213C122.934 30.9979 122.883 31.0572 122.804 31.099C122.663 31.308 122.491 31.5832 122.287 31.9246C122.083 32.2661 121.891 32.6179 121.711 32.9802C121.531 33.3426 121.389 33.6561 121.288 33.9209C121.186 34.1857 121.158 34.339 121.205 34.3808C121.268 34.3808 121.303 34.4017 121.311 34.4435C121.319 34.4853 121.323 34.5201 121.323 34.548C121.323 34.6037 121.401 34.6734 121.558 34.757ZM0.908896 52.5123C43.4297 49.3856 77.3661 47.4318 102.721 46.6504C128.1 45.8683 144.823 46.2636 152.959 47.8131L153.177 46.6723C144.894 45.0948 128.041 44.7083 102.685 45.4897C77.3065 46.2718 43.3516 48.2269 0.82373 51.3541L0.908896 52.5123Z" fill="#80EFAC"/>
</g>
</svg>
